<svg width="856" height="240" viewBox="0 0 856 240" fill="none" xmlns="http://www.w3.org/2000/svg">
<g clip-path="url(#clip0_216_17)">
<path d="M41.805 80.99C41.1083 83.3367 40.0083 85.2983 38.505 86.875C37.0017 88.4517 35.2233 89.625 33.17 90.395C31.1167 91.165 28.8617 91.55 26.405 91.55C22.8117 91.55 19.695 90.7983 17.055 89.295C14.4517 87.7917 12.435 85.6467 11.005 82.86C9.61167 80.0733 8.915 76.7367 8.915 72.85C8.915 68.9633 9.61167 65.6267 11.005 62.84C12.435 60.0533 14.4517 57.9083 17.055 56.405C19.695 54.9017 22.775 54.15 26.295 54.15C28.7883 54.15 31.0433 54.4983 33.06 55.195C35.0767 55.855 36.7817 56.8817 38.175 58.275C39.605 59.6683 40.65 61.4283 41.31 63.555L34.435 66.47C33.8117 64.27 32.8583 62.7117 31.575 61.795C30.2917 60.8417 28.6417 60.365 26.625 60.365C24.645 60.365 22.9033 60.8417 21.4 61.795C19.9333 62.7483 18.7967 64.16 17.99 66.03C17.1833 67.8633 16.78 70.1367 16.78 72.85C16.78 75.5267 17.1467 77.8 17.88 79.67C18.65 81.54 19.7683 82.9517 21.235 83.905C22.7017 84.8583 24.4983 85.335 26.625 85.335C28.605 85.335 30.31 84.8033 31.74 83.74C33.2067 82.6767 34.2333 81.0633 34.82 78.9L41.805 80.99ZM60.2639 91.55C57.3673 91.55 54.8373 90.9817 52.6739 89.845C50.5473 88.7083 48.8973 87.0767 47.7239 84.95C46.5506 82.8233 45.9639 80.2567 45.9639 77.25C45.9639 74.2433 46.5506 71.6767 47.7239 69.55C48.8973 67.4233 50.5289 65.7917 52.6189 64.655C54.7456 63.5183 57.1656 62.95 59.8789 62.95C62.6656 62.95 65.0306 63.5183 66.9739 64.655C68.9173 65.755 70.4023 67.2767 71.4289 69.22C72.4556 71.1267 72.9689 73.3083 72.9689 75.765C72.9689 76.4983 72.9506 77.195 72.9139 77.855C72.8773 78.515 72.8223 79.1017 72.7489 79.615H50.8039V74.39H69.4489L65.8189 75.71C65.8189 73.4 65.2873 71.6217 64.2239 70.375C63.1973 69.1283 61.7306 68.505 59.8239 68.505C58.4306 68.505 57.2206 68.835 56.1939 69.495C55.2039 70.155 54.4523 71.145 53.9389 72.465C53.4256 73.7483 53.1689 75.38 53.1689 77.36C53.1689 79.3033 53.4439 80.9167 53.9939 82.2C54.5806 83.4467 55.3873 84.3817 56.4139 85.005C57.4773 85.6283 58.7423 85.94 60.2089 85.94C61.8223 85.94 63.1239 85.6283 64.1139 85.005C65.1039 84.3817 65.8739 83.52 66.4239 82.42L72.4189 84.73C71.8323 86.16 70.9339 87.3883 69.7239 88.415C68.5506 89.4417 67.1389 90.23 65.4889 90.78C63.8756 91.2933 62.1339 91.55 60.2639 91.55ZM79.3545 91V63.5H86.1195L86.5595 71.75L85.6245 70.87C86.0645 69.0733 86.7612 67.5883 87.7145 66.415C88.6679 65.2417 89.8229 64.38 91.1795 63.83C92.5729 63.2433 94.0945 62.95 95.7445 62.95C97.6512 62.95 99.3379 63.3167 100.805 64.05C102.308 64.7833 103.481 65.9017 104.325 67.405C105.205 68.8717 105.645 70.7233 105.645 72.96V91H98.1095V75.105C98.1095 72.7583 97.6512 71.145 96.7345 70.265C95.8179 69.3483 94.6262 68.89 93.1595 68.89C92.1329 68.89 91.1245 69.1467 90.1345 69.66C89.1812 70.1367 88.3929 70.925 87.7695 72.025C87.1829 73.125 86.8895 74.5917 86.8895 76.425V91H79.3545ZM122.927 55.085V82.035C122.927 83.355 123.257 84.3267 123.917 84.95C124.614 85.5367 125.549 85.83 126.722 85.83C127.639 85.83 128.446 85.7017 129.142 85.445C129.839 85.1517 130.462 84.7667 131.012 84.29L132.222 89.295C131.342 89.9917 130.242 90.5417 128.922 90.945C127.602 91.3483 126.209 91.55 124.742 91.55C122.909 91.55 121.277 91.275 119.847 90.725C118.454 90.175 117.354 89.295 116.547 88.085C115.777 86.875 115.392 85.2617 115.392 83.245V57.175L122.927 55.085ZM131.727 63.5V69.11H110.332V63.5H131.727ZM136.825 91V63.5H143.37L143.865 68.89C144.599 66.9833 145.662 65.5167 147.055 64.49C148.485 63.4633 150.264 62.95 152.39 62.95C153.014 62.95 153.582 63.005 154.095 63.115C154.609 63.225 155.03 63.3717 155.36 63.555L154.48 69.88C154.114 69.7333 153.655 69.6233 153.105 69.55C152.592 69.4767 151.914 69.44 151.07 69.44C149.97 69.44 148.907 69.715 147.88 70.265C146.854 70.7783 146.01 71.585 145.35 72.685C144.69 73.7483 144.36 75.105 144.36 76.755V91H136.825ZM172.031 62.95C174.818 62.95 177.256 63.5183 179.346 64.655C181.473 65.7917 183.123 67.4233 184.296 69.55C185.506 71.6767 186.111 74.2433 186.111 77.25C186.111 80.22 185.506 82.7867 184.296 84.95C183.123 87.0767 181.473 88.7083 179.346 89.845C177.256 90.9817 174.818 91.55 172.031 91.55C169.281 91.55 166.843 90.9817 164.716 89.845C162.59 88.7083 160.921 87.0767 159.711 84.95C158.538 82.7867 157.951 80.22 157.951 77.25C157.951 74.2433 158.538 71.6767 159.711 69.55C160.921 67.4233 162.59 65.7917 164.716 64.655C166.843 63.5183 169.281 62.95 172.031 62.95ZM172.031 68.56C170.638 68.56 169.446 68.89 168.456 69.55C167.503 70.1733 166.77 71.1267 166.256 72.41C165.743 73.6933 165.486 75.3067 165.486 77.25C165.486 79.1933 165.743 80.8067 166.256 82.09C166.77 83.3733 167.503 84.345 168.456 85.005C169.446 85.6283 170.638 85.94 172.031 85.94C173.388 85.94 174.543 85.6283 175.496 85.005C176.486 84.345 177.238 83.3733 177.751 82.09C178.265 80.8067 178.521 79.1933 178.521 77.25C178.521 75.3067 178.265 73.6933 177.751 72.41C177.238 71.1267 176.486 70.1733 175.496 69.55C174.543 68.89 173.388 68.56 172.031 68.56ZM236.434 91.55C234.161 91.55 232.126 90.9817 230.329 89.845C228.569 88.7083 227.176 87.0767 226.149 84.95C225.159 82.8233 224.664 80.275 224.664 77.305C224.664 74.2617 225.196 71.6767 226.259 69.55C227.322 67.3867 228.752 65.755 230.549 64.655C232.382 63.5183 234.436 62.95 236.709 62.95C239.129 62.95 241.127 63.6467 242.704 65.04C244.281 66.4333 245.307 68.23 245.784 70.43L245.069 71.31V51.455H252.604V91H245.839L245.344 82.64L246.279 83.08C246.022 84.8033 245.436 86.3067 244.519 87.59C243.602 88.8367 242.447 89.8083 241.054 90.505C239.661 91.2017 238.121 91.55 236.434 91.55ZM238.634 85.775C239.954 85.775 241.091 85.445 242.044 84.785C242.997 84.0883 243.731 83.08 244.244 81.76C244.794 80.44 245.069 78.8633 245.069 77.03C245.069 75.27 244.812 73.785 244.299 72.575C243.786 71.3283 243.052 70.375 242.099 69.715C241.146 69.055 240.027 68.725 238.744 68.725C236.691 68.725 235.077 69.4583 233.904 70.925C232.767 72.355 232.199 74.4633 232.199 77.25C232.199 80.0367 232.767 82.1633 233.904 83.63C235.041 85.06 236.617 85.775 238.634 85.775ZM273.282 91.55C270.385 91.55 267.855 90.9817 265.692 89.845C263.565 88.7083 261.915 87.0767 260.742 84.95C259.568 82.8233 258.982 80.2567 258.982 77.25C258.982 74.2433 259.568 71.6767 260.742 69.55C261.915 67.4233 263.547 65.7917 265.637 64.655C267.763 63.5183 270.183 62.95 272.897 62.95C275.683 62.95 278.048 63.5183 279.992 64.655C281.935 65.755 283.42 67.2767 284.447 69.22C285.473 71.1267 285.987 73.3083 285.987 75.765C285.987 76.4983 285.968 77.195 285.932 77.855C285.895 78.515 285.84 79.1017 285.767 79.615H263.822V74.39H282.467L278.837 75.71C278.837 73.4 278.305 71.6217 277.242 70.375C276.215 69.1283 274.748 68.505 272.842 68.505C271.448 68.505 270.238 68.835 269.212 69.495C268.222 70.155 267.47 71.145 266.957 72.465C266.443 73.7483 266.187 75.38 266.187 77.36C266.187 79.3033 266.462 80.9167 267.012 82.2C267.598 83.4467 268.405 84.3817 269.432 85.005C270.495 85.6283 271.76 85.94 273.227 85.94C274.84 85.94 276.142 85.6283 277.132 85.005C278.122 84.3817 278.892 83.52 279.442 82.42L285.437 84.73C284.85 86.16 283.952 87.3883 282.742 88.415C281.568 89.4417 280.157 90.23 278.507 90.78C276.893 91.2933 275.152 91.55 273.282 91.55ZM323.979 54.7C329.662 54.7 334.062 56.2767 337.179 59.43C340.295 62.5467 341.854 67.02 341.854 72.85C341.854 78.6433 340.295 83.1167 337.179 86.27C334.062 89.4233 329.662 91 323.979 91H309.954V54.7H323.979ZM323.594 84.95C327.04 84.95 329.625 83.9233 331.349 81.87C333.109 79.78 333.989 76.7733 333.989 72.85C333.989 68.9267 333.109 65.9383 331.349 63.885C329.625 61.795 327.04 60.75 323.594 60.75H317.544V84.95H323.594ZM352.349 59.54C350.772 59.54 349.599 59.21 348.829 58.55C348.059 57.8533 347.674 56.845 347.674 55.525C347.674 54.1683 348.059 53.16 348.829 52.5C349.599 51.8033 350.772 51.455 352.349 51.455C353.925 51.455 355.099 51.8033 355.869 52.5C356.639 53.16 357.024 54.1683 357.024 55.525C357.024 56.845 356.639 57.8533 355.869 58.55C355.099 59.21 353.925 59.54 352.349 59.54ZM356.089 63.5V91H348.554V63.5H356.089ZM375.076 91.55C372.29 91.55 369.741 91.055 367.431 90.065C365.158 89.075 363.306 87.6817 361.876 85.885L366.221 81.485C367.101 82.805 368.275 83.8867 369.741 84.73C371.208 85.5733 372.95 85.995 374.966 85.995C376.396 85.995 377.533 85.7933 378.376 85.39C379.256 84.95 379.696 84.2717 379.696 83.355C379.696 82.7683 379.495 82.2733 379.091 81.87C378.688 81.43 377.881 81.0817 376.671 80.825L371.831 79.835C368.641 79.175 366.368 78.185 365.011 76.865C363.691 75.5083 363.031 73.7667 363.031 71.64C363.031 70.1367 363.471 68.725 364.351 67.405C365.268 66.085 366.625 65.0217 368.421 64.215C370.218 63.3717 372.455 62.95 375.131 62.95C377.881 62.95 380.265 63.39 382.281 64.27C384.335 65.1133 385.948 66.3783 387.121 68.065L382.611 72.465C381.805 71.1817 380.741 70.21 379.421 69.55C378.138 68.8533 376.781 68.505 375.351 68.505C374.325 68.505 373.445 68.615 372.711 68.835C371.978 69.055 371.428 69.3667 371.061 69.77C370.695 70.1367 370.511 70.6133 370.511 71.2C370.511 71.7867 370.768 72.3 371.281 72.74C371.795 73.1433 372.73 73.4917 374.086 73.785L379.696 74.94C382.41 75.49 384.353 76.425 385.526 77.745C386.7 79.0283 387.286 80.5867 387.286 82.42C387.286 84.18 386.81 85.7567 385.856 87.15C384.94 88.5067 383.565 89.5883 381.731 90.395C379.935 91.165 377.716 91.55 375.076 91.55ZM405.948 91.55C403.051 91.55 400.521 90.9817 398.358 89.845C396.231 88.7083 394.581 87.0767 393.408 84.95C392.234 82.8233 391.648 80.2567 391.648 77.25C391.648 74.2433 392.234 71.6767 393.408 69.55C394.581 67.4233 396.213 65.7917 398.303 64.655C400.429 63.5183 402.849 62.95 405.563 62.95C408.349 62.95 410.714 63.5183 412.658 64.655C414.601 65.755 416.086 67.2767 417.113 69.22C418.139 71.1267 418.653 73.3083 418.653 75.765C418.653 76.4983 418.634 77.195 418.598 77.855C418.561 78.515 418.506 79.1017 418.433 79.615H396.488V74.39H415.133L411.503 75.71C411.503 73.4 410.971 71.6217 409.908 70.375C408.881 69.1283 407.414 68.505 405.508 68.505C404.114 68.505 402.904 68.835 401.878 69.495C400.888 70.155 400.136 71.145 399.623 72.465C399.109 73.7483 398.853 75.38 398.853 77.36C398.853 79.3033 399.128 80.9167 399.678 82.2C400.264 83.4467 401.071 84.3817 402.098 85.005C403.161 85.6283 404.426 85.94 405.893 85.94C407.506 85.94 408.808 85.6283 409.798 85.005C410.788 84.3817 411.558 83.52 412.108 82.42L418.103 84.73C417.516 86.16 416.618 87.3883 415.408 88.415C414.234 89.4417 412.823 90.23 411.173 90.78C409.559 91.2933 407.818 91.55 405.948 91.55ZM425.038 91V63.5H431.803L432.243 71.75L431.308 70.87C431.748 69.0733 432.445 67.5883 433.398 66.415C434.351 65.2417 435.506 64.38 436.863 63.83C438.256 63.2433 439.778 62.95 441.428 62.95C443.335 62.95 445.021 63.3167 446.488 64.05C447.991 64.7833 449.165 65.9017 450.008 67.405C450.888 68.8717 451.328 70.7233 451.328 72.96V91H443.793V75.105C443.793 72.7583 443.335 71.145 442.418 70.265C441.501 69.3483 440.31 68.89 438.843 68.89C437.816 68.89 436.808 69.1467 435.818 69.66C434.865 70.1367 434.076 70.925 433.453 72.025C432.866 73.125 432.573 74.5917 432.573 76.425V91H425.038ZM448.908 51.51C448.835 53.3433 448.505 54.8833 447.918 56.13C447.368 57.34 446.616 58.2567 445.663 58.88C444.71 59.4667 443.61 59.76 442.363 59.76C441.336 59.76 440.456 59.595 439.723 59.265C438.99 58.8983 438.348 58.5133 437.798 58.11C437.285 57.67 436.771 57.285 436.258 56.955C435.781 56.5883 435.268 56.405 434.718 56.405C434.021 56.405 433.49 56.6983 433.123 57.285C432.793 57.835 432.555 58.66 432.408 59.76H427.788C427.935 57.01 428.595 54.9567 429.768 53.6C430.978 52.2067 432.591 51.51 434.608 51.51C435.598 51.51 436.441 51.6933 437.138 52.06C437.871 52.39 438.495 52.775 439.008 53.215C439.521 53.655 439.998 54.04 440.438 54.37C440.915 54.7 441.428 54.865 441.978 54.865C442.711 54.865 443.243 54.59 443.573 54.04C443.94 53.4533 444.196 52.61 444.343 51.51H448.908ZM471.631 62.95C474.418 62.95 476.856 63.5183 478.946 64.655C481.073 65.7917 482.723 67.4233 483.896 69.55C485.106 71.6767 485.711 74.2433 485.711 77.25C485.711 80.22 485.106 82.7867 483.896 84.95C482.723 87.0767 481.073 88.7083 478.946 89.845C476.856 90.9817 474.418 91.55 471.631 91.55C468.881 91.55 466.443 90.9817 464.316 89.845C462.189 88.7083 460.521 87.0767 459.311 84.95C458.138 82.7867 457.551 80.22 457.551 77.25C457.551 74.2433 458.138 71.6767 459.311 69.55C460.521 67.4233 462.189 65.7917 464.316 64.655C466.443 63.5183 468.881 62.95 471.631 62.95ZM471.631 68.56C470.238 68.56 469.046 68.89 468.056 69.55C467.103 70.1733 466.369 71.1267 465.856 72.41C465.343 73.6933 465.086 75.3067 465.086 77.25C465.086 79.1933 465.343 80.8067 465.856 82.09C466.369 83.3733 467.103 84.345 468.056 85.005C469.046 85.6283 470.238 85.94 471.631 85.94C472.988 85.94 474.143 85.6283 475.096 85.005C476.086 84.345 476.838 83.3733 477.351 82.09C477.864 80.8067 478.121 79.1933 478.121 77.25C478.121 75.3067 477.864 73.6933 477.351 72.41C476.838 71.1267 476.086 70.1733 475.096 69.55C474.143 68.89 472.988 68.56 471.631 68.56ZM521.587 91.55C518.691 91.55 516.161 90.9817 513.997 89.845C511.871 88.7083 510.221 87.0767 509.047 84.95C507.874 82.8233 507.287 80.2567 507.287 77.25C507.287 74.2433 507.874 71.6767 509.047 69.55C510.221 67.4233 511.852 65.7917 513.942 64.655C516.069 63.5183 518.489 62.95 521.202 62.95C523.989 62.95 526.354 63.5183 528.297 64.655C530.241 65.755 531.726 67.2767 532.752 69.22C533.779 71.1267 534.292 73.3083 534.292 75.765C534.292 76.4983 534.274 77.195 534.237 77.855C534.201 78.515 534.146 79.1017 534.072 79.615H512.127V74.39H530.772L527.142 75.71C527.142 73.4 526.611 71.6217 525.547 70.375C524.521 69.1283 523.054 68.505 521.147 68.505C519.754 68.505 518.544 68.835 517.517 69.495C516.527 70.155 515.776 71.145 515.262 72.465C514.749 73.7483 514.492 75.38 514.492 77.36C514.492 79.3033 514.767 80.9167 515.317 82.2C515.904 83.4467 516.711 84.3817 517.737 85.005C518.801 85.6283 520.066 85.94 521.532 85.94C523.146 85.94 524.447 85.6283 525.437 85.005C526.427 84.3817 527.197 83.52 527.747 82.42L533.742 84.73C533.156 86.16 532.257 87.3883 531.047 88.415C529.874 89.4417 528.462 90.23 526.812 90.78C525.199 91.2933 523.457 91.55 521.587 91.55ZM565.849 54.7V91H558.259V54.7H565.849ZM574.355 91V63.5H581.12L581.56 71.75L580.625 70.87C581.065 69.0733 581.761 67.5883 582.715 66.415C583.668 65.2417 584.823 64.38 586.18 63.83C587.573 63.2433 589.095 62.95 590.745 62.95C592.651 62.95 594.338 63.3167 595.805 64.05C597.308 64.7833 598.481 65.9017 599.325 67.405C600.205 68.8717 600.645 70.7233 600.645 72.96V91H593.11V75.105C593.11 72.7583 592.651 71.145 591.735 70.265C590.818 69.3483 589.626 68.89 588.16 68.89C587.133 68.89 586.125 69.1467 585.135 69.66C584.181 70.1367 583.393 70.925 582.77 72.025C582.183 73.125 581.89 74.5917 581.89 76.425V91H574.355ZM608.407 91V63.5H615.172L615.612 71.75L614.677 70.87C615.117 69.0733 615.814 67.5883 616.767 66.415C617.721 65.2417 618.876 64.38 620.232 63.83C621.626 63.2433 623.147 62.95 624.797 62.95C626.704 62.95 628.391 63.3167 629.857 64.05C631.361 64.7833 632.534 65.9017 633.377 67.405C634.257 68.8717 634.697 70.7233 634.697 72.96V91H627.162V75.105C627.162 72.7583 626.704 71.145 625.787 70.265C624.871 69.3483 623.679 68.89 622.212 68.89C621.186 68.89 620.177 69.1467 619.187 69.66C618.234 70.1367 617.446 70.925 616.822 72.025C616.236 73.125 615.942 74.5917 615.942 76.425V91H608.407ZM655 62.95C657.787 62.95 660.225 63.5183 662.315 64.655C664.442 65.7917 666.092 67.4233 667.265 69.55C668.475 71.6767 669.08 74.2433 669.08 77.25C669.08 80.22 668.475 82.7867 667.265 84.95C666.092 87.0767 664.442 88.7083 662.315 89.845C660.225 90.9817 657.787 91.55 655 91.55C652.25 91.55 649.812 90.9817 647.685 89.845C645.558 88.7083 643.89 87.0767 642.68 84.95C641.507 82.7867 640.92 80.22 640.92 77.25C640.92 74.2433 641.507 71.6767 642.68 69.55C643.89 67.4233 645.558 65.7917 647.685 64.655C649.812 63.5183 652.25 62.95 655 62.95ZM655 68.56C653.607 68.56 652.415 68.89 651.425 69.55C650.472 70.1733 649.738 71.1267 649.225 72.41C648.712 73.6933 648.455 75.3067 648.455 77.25C648.455 79.1933 648.712 80.8067 649.225 82.09C649.738 83.3733 650.472 84.345 651.425 85.005C652.415 85.6283 653.607 85.94 655 85.94C656.357 85.94 657.512 85.6283 658.465 85.005C659.455 84.345 660.207 83.3733 660.72 82.09C661.233 80.8067 661.49 79.1933 661.49 77.25C661.49 75.3067 661.233 73.6933 660.72 72.41C660.207 71.1267 659.455 70.1733 658.465 69.55C657.512 68.89 656.357 68.56 655 68.56ZM693.103 63.5H700.913L690.463 91H681.773L671.323 63.5H679.353L686.173 85.225L693.103 63.5ZM720.171 73.455C720.171 71.8783 719.713 70.65 718.796 69.77C717.916 68.89 716.743 68.45 715.276 68.45C713.919 68.45 712.728 68.7983 711.701 69.495C710.674 70.1917 709.923 71.3467 709.446 72.96L703.011 70.98C703.634 68.56 704.991 66.6167 707.081 65.15C709.208 63.6833 712.049 62.95 715.606 62.95C718.026 62.95 720.134 63.335 721.931 64.105C723.728 64.8383 725.121 65.9567 726.111 67.46C727.138 68.9633 727.651 70.8517 727.651 73.125V84.29C727.651 85.6833 728.311 86.38 729.631 86.38C730.254 86.38 730.841 86.2883 731.391 86.105L730.951 90.78C729.998 91.2567 728.806 91.495 727.376 91.495C726.093 91.495 724.938 91.275 723.911 90.835C722.884 90.395 722.078 89.735 721.491 88.855C720.904 87.9383 720.611 86.8017 720.611 85.445V85.225L721.931 85.005C721.711 86.3983 721.106 87.59 720.116 88.58C719.126 89.5333 717.916 90.2667 716.486 90.78C715.093 91.2933 713.644 91.55 712.141 91.55C710.271 91.55 708.658 91.275 707.301 90.725C705.944 90.1383 704.899 89.295 704.166 88.195C703.433 87.095 703.066 85.7383 703.066 84.125C703.066 82.0717 703.726 80.4033 705.046 79.12C706.366 77.8 708.254 76.9017 710.711 76.425L721.051 74.335L720.996 79.01L714.396 80.33C713.149 80.5867 712.196 80.935 711.536 81.375C710.913 81.7783 710.601 82.4567 710.601 83.41C710.601 84.3267 710.931 85.0233 711.591 85.5C712.288 85.9767 713.113 86.215 714.066 86.215C714.836 86.215 715.588 86.1233 716.321 85.94C717.054 85.7567 717.714 85.4633 718.301 85.06C718.888 84.6567 719.346 84.1067 719.676 83.41C720.006 82.7133 720.171 81.87 720.171 80.88V73.455ZM748.456 62.95C750.912 62.95 752.984 63.3167 754.671 64.05C756.394 64.7467 757.769 65.7183 758.796 66.965C759.859 68.175 760.611 69.5317 761.051 71.035L754.011 73.565C753.644 71.915 753.021 70.6683 752.141 69.825C751.261 68.9817 750.069 68.56 748.566 68.56C747.172 68.56 745.981 68.89 744.991 69.55C744.001 70.1733 743.249 71.145 742.736 72.465C742.222 73.7483 741.966 75.3617 741.966 77.305C741.966 79.2483 742.222 80.8617 742.736 82.145C743.286 83.4283 744.056 84.3817 745.046 85.005C746.072 85.6283 747.264 85.94 748.621 85.94C749.721 85.94 750.656 85.7567 751.426 85.39C752.196 84.9867 752.819 84.4183 753.296 83.685C753.809 82.9517 754.157 82.0717 754.341 81.045L761.161 83.245C760.757 84.895 760.006 86.3433 758.906 87.59C757.806 88.8367 756.394 89.8083 754.671 90.505C752.947 91.2017 750.949 91.55 748.676 91.55C745.852 91.55 743.359 90.9817 741.196 89.845C739.032 88.7083 737.364 87.0767 736.191 84.95C735.017 82.8233 734.431 80.2567 734.431 77.25C734.431 74.2433 735.017 71.6767 736.191 69.55C737.364 67.4233 739.014 65.7917 741.141 64.655C743.267 63.5183 745.706 62.95 748.456 62.95ZM770.811 59.54C769.234 59.54 768.061 59.21 767.291 58.55C766.521 57.8533 766.136 56.845 766.136 55.525C766.136 54.1683 766.521 53.16 767.291 52.5C768.061 51.8033 769.234 51.455 770.811 51.455C772.387 51.455 773.561 51.8033 774.331 52.5C775.101 53.16 775.486 54.1683 775.486 55.525C775.486 56.845 775.101 57.8533 774.331 58.55C773.561 59.21 772.387 59.54 770.811 59.54ZM774.551 63.5V91H767.016V63.5H774.551ZM795.078 62.95C797.865 62.95 800.303 63.5183 802.393 64.655C804.52 65.7917 806.17 67.4233 807.343 69.55C808.553 71.6767 809.158 74.2433 809.158 77.25C809.158 80.22 808.553 82.7867 807.343 84.95C806.17 87.0767 804.52 88.7083 802.393 89.845C800.303 90.9817 797.865 91.55 795.078 91.55C792.328 91.55 789.89 90.9817 787.763 89.845C785.636 88.7083 783.968 87.0767 782.758 84.95C781.585 82.7867 780.998 80.22 780.998 77.25C780.998 74.2433 781.585 71.6767 782.758 69.55C783.968 67.4233 785.636 65.7917 787.763 64.655C789.89 63.5183 792.328 62.95 795.078 62.95ZM795.078 68.56C793.685 68.56 792.493 68.89 791.503 69.55C790.55 70.1733 789.816 71.1267 789.303 72.41C788.79 73.6933 788.533 75.3067 788.533 77.25C788.533 79.1933 788.79 80.8067 789.303 82.09C789.816 83.3733 790.55 84.345 791.503 85.005C792.493 85.6283 793.685 85.94 795.078 85.94C796.435 85.94 797.59 85.6283 798.543 85.005C799.533 84.345 800.285 83.3733 800.798 82.09C801.311 80.8067 801.568 79.1933 801.568 77.25C801.568 75.3067 801.311 73.6933 800.798 72.41C800.285 71.1267 799.533 70.1733 798.543 69.55C797.59 68.89 796.435 68.56 795.078 68.56ZM795.243 50.19H802.503L797.003 59.54H791.448L795.243 50.19ZM815.463 91V63.5H822.228L822.668 71.75L821.733 70.87C822.173 69.0733 822.87 67.5883 823.823 66.415C824.776 65.2417 825.931 64.38 827.288 63.83C828.681 63.2433 830.203 62.95 831.853 62.95C833.76 62.95 835.446 63.3167 836.913 64.05C838.416 64.7833 839.59 65.9017 840.433 67.405C841.313 68.8717 841.753 70.7233 841.753 72.96V91H834.218V75.105C834.218 72.7583 833.76 71.145 832.843 70.265C831.926 69.3483 830.735 68.89 829.268 68.89C828.241 68.89 827.233 69.1467 826.243 69.66C825.29 70.1367 824.501 70.925 823.878 72.025C823.291 73.125 822.998 74.5917 822.998 76.425V91H815.463ZM39.44 119.7V125.805H27.285V156H19.695V125.805H7.485V119.7H39.44ZM45.6421 156V119.7H72.8671V125.805H53.2321V134.825H68.6871V140.655H53.2321V149.895H73.6371V156H45.6421ZM111.038 145.99C110.342 148.337 109.242 150.298 107.738 151.875C106.235 153.452 104.457 154.625 102.403 155.395C100.35 156.165 98.0951 156.55 95.6384 156.55C92.0451 156.55 88.9284 155.798 86.2884 154.295C83.6851 152.792 81.6684 150.647 80.2384 147.86C78.8451 145.073 78.1484 141.737 78.1484 137.85C78.1484 133.963 78.8451 130.627 80.2384 127.84C81.6684 125.053 83.6851 122.908 86.2884 121.405C88.9284 119.902 92.0084 119.15 95.5284 119.15C98.0217 119.15 100.277 119.498 102.293 120.195C104.31 120.855 106.015 121.882 107.408 123.275C108.838 124.668 109.883 126.428 110.543 128.555L103.668 131.47C103.045 129.27 102.092 127.712 100.808 126.795C99.5251 125.842 97.8751 125.365 95.8584 125.365C93.8784 125.365 92.1367 125.842 90.6334 126.795C89.1667 127.748 88.0301 129.16 87.2234 131.03C86.4167 132.863 86.0134 135.137 86.0134 137.85C86.0134 140.527 86.3801 142.8 87.1134 144.67C87.8834 146.54 89.0017 147.952 90.4684 148.905C91.9351 149.858 93.7317 150.335 95.8584 150.335C97.8384 150.335 99.5434 149.803 100.973 148.74C102.44 147.677 103.467 146.063 104.053 143.9L111.038 145.99ZM148.692 119.7V156H140.002L127.297 134.66L124.162 128.72H124.107L124.327 134.99V156H117.507V119.7H126.142L138.847 140.985L141.982 146.98H142.092L141.872 140.71V119.7H148.692ZM173.842 119.15C177.435 119.15 180.533 119.902 183.137 121.405C185.74 122.908 187.738 125.053 189.132 127.84C190.562 130.627 191.277 133.963 191.277 137.85C191.277 141.737 190.562 145.073 189.132 147.86C187.738 150.647 185.74 152.792 183.137 154.295C180.533 155.798 177.435 156.55 173.842 156.55C170.248 156.55 167.132 155.798 164.492 154.295C161.888 152.792 159.872 150.647 158.442 147.86C157.048 145.073 156.352 141.737 156.352 137.85C156.352 133.963 157.048 130.627 158.442 127.84C159.872 125.053 161.888 122.908 164.492 121.405C167.132 119.902 170.248 119.15 173.842 119.15ZM173.842 125.365C171.788 125.365 170.047 125.842 168.617 126.795C167.187 127.748 166.087 129.16 165.317 131.03C164.583 132.863 164.217 135.137 164.217 137.85C164.217 140.527 164.583 142.8 165.317 144.67C166.087 146.54 167.187 147.952 168.617 148.905C170.047 149.858 171.788 150.335 173.842 150.335C175.858 150.335 177.582 149.858 179.012 148.905C180.442 147.952 181.523 146.54 182.257 144.67C183.027 142.8 183.412 140.527 183.412 137.85C183.412 135.137 183.027 132.863 182.257 131.03C181.523 129.16 180.442 127.748 179.012 126.795C177.582 125.842 175.858 125.365 173.842 125.365ZM173.952 106.94H180.882L176.042 115.85H170.487L173.952 106.94ZM206.523 149.895H225.663V156H198.933V119.7H206.523V149.895ZM246.405 119.15C249.998 119.15 253.097 119.902 255.7 121.405C258.303 122.908 260.302 125.053 261.695 127.84C263.125 130.627 263.84 133.963 263.84 137.85C263.84 141.737 263.125 145.073 261.695 147.86C260.302 150.647 258.303 152.792 255.7 154.295C253.097 155.798 249.998 156.55 246.405 156.55C242.812 156.55 239.695 155.798 237.055 154.295C234.452 152.792 232.435 150.647 231.005 147.86C229.612 145.073 228.915 141.737 228.915 137.85C228.915 133.963 229.612 130.627 231.005 127.84C232.435 125.053 234.452 122.908 237.055 121.405C239.695 119.902 242.812 119.15 246.405 119.15ZM246.405 125.365C244.352 125.365 242.61 125.842 241.18 126.795C239.75 127.748 238.65 129.16 237.88 131.03C237.147 132.863 236.78 135.137 236.78 137.85C236.78 140.527 237.147 142.8 237.88 144.67C238.65 146.54 239.75 147.952 241.18 148.905C242.61 149.858 244.352 150.335 246.405 150.335C248.422 150.335 250.145 149.858 251.575 148.905C253.005 147.952 254.087 146.54 254.82 144.67C255.59 142.8 255.975 140.527 255.975 137.85C255.975 135.137 255.59 132.863 254.82 131.03C254.087 129.16 253.005 127.748 251.575 126.795C250.145 125.842 248.422 125.365 246.405 125.365ZM286.402 156.55C283.065 156.55 280.132 155.817 277.602 154.35C275.108 152.883 273.165 150.757 271.772 147.97C270.378 145.183 269.682 141.828 269.682 137.905C269.682 134.018 270.415 130.682 271.882 127.895C273.348 125.072 275.42 122.908 278.097 121.405C280.81 119.902 283.945 119.15 287.502 119.15C291.425 119.15 294.597 119.883 297.017 121.35C299.437 122.78 301.362 125.017 302.792 128.06L295.752 131.085C295.165 129.142 294.157 127.712 292.727 126.795C291.333 125.842 289.61 125.365 287.557 125.365C285.503 125.365 283.725 125.86 282.222 126.85C280.718 127.803 279.563 129.215 278.757 131.085C277.95 132.918 277.547 135.173 277.547 137.85C277.547 140.6 277.932 142.928 278.702 144.835C279.472 146.705 280.608 148.117 282.112 149.07C283.652 149.987 285.54 150.445 287.777 150.445C288.987 150.445 290.105 150.298 291.132 150.005C292.195 149.712 293.112 149.272 293.882 148.685C294.652 148.098 295.257 147.347 295.697 146.43C296.137 145.513 296.357 144.45 296.357 143.24V142.415H286.842V136.86H302.902V156H297.567L297.017 148.08L298.337 149.015C297.53 151.435 296.1 153.305 294.047 154.625C292.03 155.908 289.482 156.55 286.402 156.55ZM318.833 119.7V156H311.243V119.7H318.833ZM359.344 145.99C358.647 148.337 357.547 150.298 356.044 151.875C354.541 153.452 352.762 154.625 350.709 155.395C348.656 156.165 346.401 156.55 343.944 156.55C340.351 156.55 337.234 155.798 334.594 154.295C331.991 152.792 329.974 150.647 328.544 147.86C327.151 145.073 326.454 141.737 326.454 137.85C326.454 133.963 327.151 130.627 328.544 127.84C329.974 125.053 331.991 122.908 334.594 121.405C337.234 119.902 340.314 119.15 343.834 119.15C346.327 119.15 348.582 119.498 350.599 120.195C352.616 120.855 354.321 121.882 355.714 123.275C357.144 124.668 358.189 126.428 358.849 128.555L351.974 131.47C351.351 129.27 350.397 127.712 349.114 126.795C347.831 125.842 346.181 125.365 344.164 125.365C342.184 125.365 340.442 125.842 338.939 126.795C337.472 127.748 336.336 129.16 335.529 131.03C334.722 132.863 334.319 135.137 334.319 137.85C334.319 140.527 334.686 142.8 335.419 144.67C336.189 146.54 337.307 147.952 338.774 148.905C340.241 149.858 342.037 150.335 344.164 150.335C346.144 150.335 347.849 149.803 349.279 148.74C350.746 147.677 351.772 146.063 352.359 143.9L359.344 145.99ZM397.328 156H389.463L386.438 147.145H372.523L369.498 156H361.743L374.998 119.7H384.073L397.328 156ZM374.228 141.535H384.733L379.453 125.695L374.228 141.535ZM425.556 119.7V156H417.966V119.7H425.556ZM466.178 119.7V156H457.488L444.783 134.66L441.648 128.72H441.593L441.813 134.99V156H434.993V119.7H443.628L456.333 140.985L459.468 146.98H459.578L459.358 140.71V119.7H466.178ZM489.677 119.7C495.36 119.7 499.76 121.277 502.877 124.43C505.994 127.547 507.552 132.02 507.552 137.85C507.552 143.643 505.994 148.117 502.877 151.27C499.76 154.423 495.36 156 489.677 156H475.652V119.7H489.677ZM489.292 149.95C492.739 149.95 495.324 148.923 497.047 146.87C498.807 144.78 499.687 141.773 499.687 137.85C499.687 133.927 498.807 130.938 497.047 128.885C495.324 126.795 492.739 125.75 489.292 125.75H483.242V149.95H489.292ZM545.488 119.7V141.7C545.488 146.65 544.168 150.372 541.528 152.865C538.888 155.322 535.038 156.55 529.978 156.55C524.918 156.55 521.068 155.322 518.428 152.865C515.788 150.372 514.468 146.65 514.468 141.7V119.7H522.058V141.37C522.058 144.413 522.7 146.668 523.983 148.135C525.303 149.602 527.301 150.335 529.978 150.335C532.655 150.335 534.635 149.602 535.918 148.135C537.201 146.668 537.843 144.413 537.843 141.37V119.7H545.488ZM567.486 119.15C570.786 119.15 573.683 119.718 576.176 120.855C578.669 121.992 580.796 123.678 582.556 125.915L578.321 130.81C576.818 128.903 575.168 127.51 573.371 126.63C571.611 125.713 569.558 125.255 567.211 125.255C565.671 125.255 564.388 125.457 563.361 125.86C562.371 126.263 561.638 126.795 561.161 127.455C560.721 128.115 560.501 128.848 560.501 129.655C560.501 130.645 560.886 131.488 561.656 132.185C562.426 132.845 563.746 133.395 565.616 133.835L572.381 135.375C575.974 136.182 578.541 137.392 580.081 139.005C581.658 140.582 582.446 142.635 582.446 145.165C582.446 147.548 581.823 149.602 580.576 151.325C579.329 153.012 577.588 154.313 575.351 155.23C573.114 156.11 570.548 156.55 567.651 156.55C565.121 156.55 562.793 156.257 560.666 155.67C558.576 155.047 556.706 154.203 555.056 153.14C553.406 152.077 552.031 150.848 550.931 149.455L555.221 144.34C556.064 145.513 557.109 146.558 558.356 147.475C559.603 148.392 561.014 149.125 562.591 149.675C564.204 150.188 565.891 150.445 567.651 150.445C569.154 150.445 570.419 150.28 571.446 149.95C572.509 149.583 573.298 149.088 573.811 148.465C574.361 147.805 574.636 147.017 574.636 146.1C574.636 145.147 574.306 144.34 573.646 143.68C573.023 142.983 571.849 142.452 570.126 142.085L562.756 140.435C560.629 139.922 558.796 139.262 557.256 138.455C555.753 137.612 554.598 136.548 553.791 135.265C553.021 133.945 552.636 132.387 552.636 130.59C552.636 128.427 553.223 126.483 554.396 124.76C555.569 123.037 557.256 121.68 559.456 120.69C561.693 119.663 564.369 119.15 567.486 119.15ZM617.316 119.7V125.805H605.161V156H597.571V125.805H585.361V119.7H617.316ZM639.523 119.7C643.63 119.7 646.856 120.69 649.203 122.67C651.55 124.65 652.723 127.308 652.723 130.645C652.723 134.202 651.55 136.933 649.203 138.84C646.856 140.71 643.648 141.645 639.578 141.645L638.808 142.085H630.998V156H623.518V119.7H639.523ZM638.643 136.31C640.77 136.31 642.346 135.888 643.373 135.045C644.436 134.165 644.968 132.827 644.968 131.03C644.968 129.233 644.436 127.913 643.373 127.07C642.346 126.19 640.77 125.75 638.643 125.75H630.998V136.31H638.643ZM643.098 137.905L654.868 156H646.343L636.608 140.105L643.098 137.905ZM668.491 119.7V156H660.901V119.7H668.491ZM709.442 156H701.577L698.552 147.145H684.637L681.612 156H673.857L687.112 119.7H696.187L709.442 156ZM686.342 141.535H696.847L691.567 125.695L686.342 141.535ZM722.417 149.895H741.557V156H714.827V119.7H722.417V149.895Z" fill="#70B22D"/>
<path d="M24.35 184C27.8833 184 30.6833 184.883 32.75 186.65C34.85 188.417 35.9 190.8 35.9 193.8C35.9 196.9 34.85 199.3 32.75 201C30.6833 202.667 27.8833 203.5 24.35 203.5L23.85 203.8H16.2V217H10.9V184H24.35ZM23.95 199.35C26.1167 199.35 27.7167 198.917 28.75 198.05C29.8167 197.15 30.35 195.783 30.35 193.95C30.35 192.15 29.8167 190.8 28.75 189.9C27.7167 189 26.1167 188.55 23.95 188.55H16.2V199.35H23.95ZM27.1 200.45L37.85 217H31.7L22.5 202.55L27.1 200.45ZM54.0602 217.5C51.5602 217.5 49.3602 216.983 47.4602 215.95C45.5602 214.917 44.0768 213.433 43.0102 211.5C41.9768 209.533 41.4602 207.2 41.4602 204.5C41.4602 201.8 41.9768 199.483 43.0102 197.55C44.0768 195.583 45.5435 194.083 47.4102 193.05C49.2768 192.017 51.3935 191.5 53.7602 191.5C56.1935 191.5 58.2602 192 59.9602 193C61.6602 194 62.9602 195.367 63.8602 197.1C64.7602 198.833 65.2102 200.8 65.2102 203C65.2102 203.6 65.1935 204.167 65.1602 204.7C65.1268 205.233 65.0768 205.7 65.0102 206.1H44.9102V202H62.6602L60.0102 202.8C60.0102 200.533 59.4435 198.8 58.3102 197.6C57.1768 196.367 55.6268 195.75 53.6602 195.75C52.2268 195.75 50.9768 196.083 49.9102 196.75C48.8435 197.417 48.0268 198.417 47.4602 199.75C46.8935 201.05 46.6102 202.65 46.6102 204.55C46.6102 206.417 46.9102 208 47.5102 209.3C48.1102 210.6 48.9602 211.583 50.0602 212.25C51.1602 212.917 52.4602 213.25 53.9602 213.25C55.6268 213.25 56.9768 212.933 58.0102 212.3C59.0435 211.667 59.8602 210.783 60.4602 209.65L64.7102 211.65C64.1102 212.85 63.2935 213.9 62.2602 214.8C61.2602 215.667 60.0602 216.333 58.6602 216.8C57.2602 217.267 55.7268 217.5 54.0602 217.5ZM93.9664 186.75L94.8164 190.95C94.7164 190.95 94.6164 190.95 94.5164 190.95C94.4164 190.917 94.3164 190.9 94.2164 190.9C92.6164 190.9 91.3997 191.25 90.5664 191.95C89.7331 192.617 89.3164 193.6 89.3164 194.9L86.7164 193.7C86.7164 192.367 86.9997 191.183 87.5664 190.15C88.1331 189.083 88.9331 188.25 89.9664 187.65C91.0331 187.05 92.2331 186.75 93.5664 186.75C93.6331 186.75 93.6997 186.75 93.7664 186.75C93.8331 186.75 93.8997 186.75 93.9664 186.75ZM86.0664 213.1C88.5997 213.1 90.5664 213.667 91.9664 214.8C93.3664 215.9 94.0664 217.433 94.0664 219.4C94.0664 221.133 93.5164 222.617 92.4164 223.85C91.3164 225.117 89.8164 226.083 87.9164 226.75C86.0497 227.417 83.8997 227.75 81.4664 227.75C77.3664 227.75 74.3331 227.117 72.3664 225.85C70.3997 224.583 69.4164 223 69.4164 221.1C69.4164 219.767 69.8831 218.6 70.8164 217.6C71.7831 216.6 73.3997 216.033 75.6664 215.9L75.3664 216.7C73.9664 216.4 72.8331 215.867 71.9664 215.1C71.1331 214.3 70.7164 213.183 70.7164 211.75C70.7164 210.317 71.2664 209.1 72.3664 208.1C73.4664 207.1 75.0164 206.517 77.0164 206.35L79.8164 207.7H79.2164C77.6831 207.833 76.5997 208.183 75.9664 208.75C75.3331 209.317 75.0164 209.95 75.0164 210.65C75.0164 211.483 75.3164 212.1 75.9164 212.5C76.5497 212.9 77.4331 213.1 78.5664 213.1H86.0664ZM81.4664 223.75C83.2997 223.75 84.7997 223.567 85.9664 223.2C87.1664 222.867 88.0497 222.417 88.6164 221.85C89.2164 221.317 89.5164 220.717 89.5164 220.05C89.5164 219.283 89.1997 218.667 88.5664 218.2C87.9664 217.733 86.8664 217.5 85.2664 217.5H77.2164C76.2831 217.5 75.4997 217.733 74.8664 218.2C74.2331 218.7 73.9164 219.367 73.9164 220.2C73.9164 221.3 74.5831 222.167 75.9164 222.8C77.2497 223.433 79.0997 223.75 81.4664 223.75ZM81.2664 191.5C83.4664 191.5 85.3664 191.85 86.9664 192.55C88.5997 193.25 89.8497 194.233 90.7164 195.5C91.6164 196.767 92.0664 198.25 92.0664 199.95C92.0664 201.65 91.6164 203.133 90.7164 204.4C89.8497 205.667 88.5997 206.65 86.9664 207.35C85.3664 208.05 83.4664 208.4 81.2664 208.4C77.7997 208.4 75.1331 207.633 73.2664 206.1C71.4331 204.533 70.5164 202.483 70.5164 199.95C70.5164 198.25 70.9664 196.767 71.8664 195.5C72.7664 194.233 74.0164 193.25 75.6164 192.55C77.2497 191.85 79.1331 191.5 81.2664 191.5ZM81.2664 195.25C79.7331 195.25 78.4497 195.683 77.4164 196.55C76.4164 197.383 75.9164 198.517 75.9164 199.95C75.9164 201.383 76.4164 202.533 77.4164 203.4C78.4497 204.267 79.7331 204.7 81.2664 204.7C82.8331 204.7 84.1164 204.267 85.1164 203.4C86.1497 202.533 86.6664 201.383 86.6664 199.95C86.6664 198.517 86.1497 197.383 85.1164 196.55C84.1164 195.683 82.8331 195.25 81.2664 195.25ZM101.668 187.8C100.502 187.8 99.6017 187.517 98.9684 186.95C98.3684 186.35 98.0684 185.517 98.0684 184.45C98.0684 183.383 98.3684 182.567 98.9684 182C99.6017 181.433 100.502 181.15 101.668 181.15C102.802 181.15 103.668 181.433 104.268 182C104.902 182.567 105.218 183.383 105.218 184.45C105.218 185.517 104.902 186.35 104.268 186.95C103.668 187.517 102.802 187.8 101.668 187.8ZM104.318 192V217H98.9684V192H104.318ZM123.539 191.5C125.972 191.5 128.122 192.017 129.989 193.05C131.856 194.083 133.306 195.583 134.339 197.55C135.406 199.483 135.939 201.8 135.939 204.5C135.939 207.2 135.406 209.533 134.339 211.5C133.306 213.433 131.856 214.917 129.989 215.95C128.122 216.983 125.972 217.5 123.539 217.5C121.106 217.5 118.956 216.983 117.089 215.95C115.222 214.917 113.756 213.433 112.689 211.5C111.622 209.533 111.089 207.2 111.089 204.5C111.089 201.8 111.622 199.483 112.689 197.55C113.756 195.583 115.222 194.083 117.089 193.05C118.956 192.017 121.106 191.5 123.539 191.5ZM123.539 195.7C122.039 195.7 120.756 196.05 119.689 196.75C118.656 197.417 117.856 198.4 117.289 199.7C116.722 201 116.439 202.6 116.439 204.5C116.439 206.367 116.722 207.967 117.289 209.3C117.856 210.6 118.656 211.6 119.689 212.3C120.756 212.967 122.039 213.3 123.539 213.3C125.039 213.3 126.306 212.967 127.339 212.3C128.372 211.6 129.172 210.6 129.739 209.3C130.306 207.967 130.589 206.367 130.589 204.5C130.589 202.6 130.306 201 129.739 199.7C129.172 198.4 128.372 197.417 127.339 196.75C126.306 196.05 125.039 195.7 123.539 195.7ZM142.67 217V192H147.42L147.77 198.5L147.07 197.8C147.536 196.367 148.203 195.183 149.07 194.25C149.97 193.283 151.02 192.583 152.22 192.15C153.453 191.717 154.753 191.5 156.12 191.5C157.886 191.5 159.47 191.85 160.87 192.55C162.303 193.217 163.436 194.233 164.27 195.6C165.103 196.967 165.52 198.7 165.52 200.8V217H160.17V202.45C160.17 199.983 159.653 198.283 158.62 197.35C157.62 196.383 156.353 195.9 154.82 195.9C153.72 195.9 152.653 196.167 151.62 196.7C150.586 197.2 149.72 198.017 149.02 199.15C148.353 200.283 148.02 201.8 148.02 203.7V217H142.67ZM188.077 200.95C188.077 199.283 187.61 198 186.677 197.1C185.777 196.167 184.527 195.7 182.927 195.7C181.427 195.7 180.143 196.05 179.077 196.75C178.01 197.45 177.227 198.583 176.727 200.15L172.227 198.25C172.86 196.217 174.093 194.583 175.927 193.35C177.793 192.117 180.193 191.5 183.127 191.5C185.127 191.5 186.893 191.833 188.427 192.5C189.96 193.133 191.16 194.1 192.027 195.4C192.927 196.7 193.377 198.367 193.377 200.4V211.55C193.377 212.783 193.993 213.4 195.227 213.4C195.827 213.4 196.41 213.317 196.977 213.15L196.677 216.85C195.91 217.217 194.943 217.4 193.777 217.4C192.71 217.4 191.743 217.217 190.877 216.85C190.043 216.45 189.377 215.867 188.877 215.1C188.41 214.3 188.177 213.317 188.177 212.15V211.8L189.277 211.75C188.977 213.05 188.36 214.133 187.427 215C186.493 215.833 185.41 216.467 184.177 216.9C182.943 217.3 181.693 217.5 180.427 217.5C178.86 217.5 177.443 217.25 176.177 216.75C174.943 216.25 173.96 215.5 173.227 214.5C172.527 213.467 172.177 212.2 172.177 210.7C172.177 208.833 172.777 207.3 173.977 206.1C175.21 204.9 176.943 204.083 179.177 203.65L188.877 201.75L188.827 205.5L181.777 206.95C180.377 207.217 179.327 207.6 178.627 208.1C177.927 208.6 177.577 209.333 177.577 210.3C177.577 211.233 177.927 211.983 178.627 212.55C179.36 213.083 180.327 213.35 181.527 213.35C182.36 213.35 183.16 213.25 183.927 213.05C184.727 212.85 185.443 212.533 186.077 212.1C186.71 211.633 187.193 211.05 187.527 210.35C187.893 209.617 188.077 208.75 188.077 207.75V200.95ZM207.342 180.75V210C207.342 211.233 207.559 212.083 207.992 212.55C208.426 213.017 209.142 213.25 210.142 213.25C210.742 213.25 211.242 213.217 211.642 213.15C212.076 213.05 212.609 212.883 213.242 212.65L212.642 216.65C212.076 216.917 211.426 217.117 210.692 217.25C209.959 217.417 209.226 217.5 208.492 217.5C206.259 217.5 204.609 216.933 203.542 215.8C202.509 214.633 201.992 212.85 201.992 210.45V180.75H207.342ZM246.713 184C250.247 184 253.047 184.883 255.113 186.65C257.213 188.417 258.263 190.8 258.263 193.8C258.263 196.9 257.213 199.3 255.113 201C253.047 202.667 250.247 203.5 246.713 203.5L246.213 203.8H238.563V217H233.263V184H246.713ZM246.313 199.35C248.48 199.35 250.08 198.917 251.113 198.05C252.18 197.15 252.713 195.783 252.713 193.95C252.713 192.15 252.18 190.8 251.113 189.9C250.08 189 248.48 188.55 246.313 188.55H238.563V199.35H246.313ZM249.463 200.45L260.213 217H254.063L244.863 202.55L249.463 200.45ZM268.612 187.8C267.445 187.8 266.545 187.517 265.912 186.95C265.312 186.35 265.012 185.517 265.012 184.45C265.012 183.383 265.312 182.567 265.912 182C266.545 181.433 267.445 181.15 268.612 181.15C269.745 181.15 270.612 181.433 271.212 182C271.845 182.567 272.162 183.383 272.162 184.45C272.162 185.517 271.845 186.35 271.212 186.95C270.612 187.517 269.745 187.8 268.612 187.8ZM271.262 192V217H265.912V192H271.262ZM289.132 217.5C286.632 217.5 284.349 217.017 282.282 216.05C280.216 215.083 278.582 213.717 277.382 211.95L281.082 208.75C281.816 210.117 282.866 211.217 284.232 212.05C285.632 212.85 287.299 213.25 289.232 213.25C290.766 213.25 291.982 212.983 292.882 212.45C293.782 211.917 294.232 211.167 294.232 210.2C294.232 209.567 294.016 209.017 293.582 208.55C293.182 208.05 292.399 207.667 291.232 207.4L285.982 206.3C283.316 205.767 281.416 204.917 280.282 203.75C279.149 202.55 278.582 201.033 278.582 199.2C278.582 197.833 278.982 196.567 279.782 195.4C280.582 194.233 281.749 193.3 283.282 192.6C284.849 191.867 286.716 191.5 288.882 191.5C291.382 191.5 293.516 191.95 295.282 192.85C297.049 193.717 298.399 194.967 299.332 196.6L295.632 199.7C294.999 198.367 294.066 197.383 292.832 196.75C291.599 196.083 290.316 195.75 288.982 195.75C287.916 195.75 286.999 195.883 286.232 196.15C285.466 196.417 284.882 196.783 284.482 197.25C284.082 197.717 283.882 198.267 283.882 198.9C283.882 199.567 284.132 200.15 284.632 200.65C285.132 201.15 286.032 201.533 287.332 201.8L293.032 203C295.432 203.467 297.116 204.267 298.082 205.4C299.082 206.5 299.582 207.85 299.582 209.45C299.582 211.05 299.166 212.467 298.332 213.7C297.499 214.9 296.299 215.833 294.732 216.5C293.166 217.167 291.299 217.5 289.132 217.5ZM320.547 200.95C320.547 199.283 320.081 198 319.147 197.1C318.247 196.167 316.997 195.7 315.397 195.7C313.897 195.7 312.614 196.05 311.547 196.75C310.481 197.45 309.697 198.583 309.197 200.15L304.697 198.25C305.331 196.217 306.564 194.583 308.397 193.35C310.264 192.117 312.664 191.5 315.597 191.5C317.597 191.5 319.364 191.833 320.897 192.5C322.431 193.133 323.631 194.1 324.497 195.4C325.397 196.7 325.847 198.367 325.847 200.4V211.55C325.847 212.783 326.464 213.4 327.697 213.4C328.297 213.4 328.881 213.317 329.447 213.15L329.147 216.85C328.381 217.217 327.414 217.4 326.247 217.4C325.181 217.4 324.214 217.217 323.347 216.85C322.514 216.45 321.847 215.867 321.347 215.1C320.881 214.3 320.647 213.317 320.647 212.15V211.8L321.747 211.75C321.447 213.05 320.831 214.133 319.897 215C318.964 215.833 317.881 216.467 316.647 216.9C315.414 217.3 314.164 217.5 312.897 217.5C311.331 217.5 309.914 217.25 308.647 216.75C307.414 216.25 306.431 215.5 305.697 214.5C304.997 213.467 304.647 212.2 304.647 210.7C304.647 208.833 305.247 207.3 306.447 206.1C307.681 204.9 309.414 204.083 311.647 203.65L321.347 201.75L321.297 205.5L314.247 206.95C312.847 207.217 311.797 207.6 311.097 208.1C310.397 208.6 310.047 209.333 310.047 210.3C310.047 211.233 310.397 211.983 311.097 212.55C311.831 213.083 312.797 213.35 313.997 213.35C314.831 213.35 315.631 213.25 316.397 213.05C317.197 212.85 317.914 212.533 318.547 212.1C319.181 211.633 319.664 211.05 319.997 210.35C320.364 209.617 320.547 208.75 320.547 207.75V200.95ZM334.613 217V192H339.163L339.663 196.5C340.33 194.867 341.313 193.633 342.613 192.8C343.946 191.933 345.58 191.5 347.513 191.5C348.013 191.5 348.513 191.55 349.013 191.65C349.513 191.717 349.93 191.833 350.263 192L349.513 196.7C349.146 196.567 348.73 196.467 348.263 196.4C347.83 196.3 347.23 196.25 346.463 196.25C345.43 196.25 344.413 196.533 343.413 197.1C342.413 197.633 341.58 198.45 340.913 199.55C340.28 200.65 339.963 202.05 339.963 203.75V217H334.613ZM369.229 200.95C369.229 199.283 368.762 198 367.829 197.1C366.929 196.167 365.679 195.7 364.079 195.7C362.579 195.7 361.296 196.05 360.229 196.75C359.162 197.45 358.379 198.583 357.879 200.15L353.379 198.25C354.012 196.217 355.246 194.583 357.079 193.35C358.946 192.117 361.346 191.5 364.279 191.5C366.279 191.5 368.046 191.833 369.579 192.5C371.112 193.133 372.312 194.1 373.179 195.4C374.079 196.7 374.529 198.367 374.529 200.4V211.55C374.529 212.783 375.146 213.4 376.379 213.4C376.979 213.4 377.562 213.317 378.129 213.15L377.829 216.85C377.062 217.217 376.096 217.4 374.929 217.4C373.862 217.4 372.896 217.217 372.029 216.85C371.196 216.45 370.529 215.867 370.029 215.1C369.562 214.3 369.329 213.317 369.329 212.15V211.8L370.429 211.75C370.129 213.05 369.512 214.133 368.579 215C367.646 215.833 366.562 216.467 365.329 216.9C364.096 217.3 362.846 217.5 361.579 217.5C360.012 217.5 358.596 217.25 357.329 216.75C356.096 216.25 355.112 215.5 354.379 214.5C353.679 213.467 353.329 212.2 353.329 210.7C353.329 208.833 353.929 207.3 355.129 206.1C356.362 204.9 358.096 204.083 360.329 203.65L370.029 201.75L369.979 205.5L362.929 206.95C361.529 207.217 360.479 207.6 359.779 208.1C359.079 208.6 358.729 209.333 358.729 210.3C358.729 211.233 359.079 211.983 359.779 212.55C360.512 213.083 361.479 213.35 362.679 213.35C363.512 213.35 364.312 213.25 365.079 213.05C365.879 212.85 366.596 212.533 367.229 212.1C367.862 211.633 368.346 211.05 368.679 210.35C369.046 209.617 369.229 208.75 369.229 207.75V200.95ZM388.495 180.75V210C388.495 211.233 388.711 212.083 389.145 212.55C389.578 213.017 390.295 213.25 391.295 213.25C391.895 213.25 392.395 213.217 392.795 213.15C393.228 213.05 393.761 212.883 394.395 212.65L393.795 216.65C393.228 216.917 392.578 217.117 391.845 217.25C391.111 217.417 390.378 217.5 389.645 217.5C387.411 217.5 385.761 216.933 384.695 215.8C383.661 214.633 383.145 212.85 383.145 210.45V180.75H388.495ZM408.471 217.5C406.404 217.5 404.521 216.983 402.821 215.95C401.154 214.917 399.837 213.433 398.871 211.5C397.904 209.567 397.421 207.25 397.421 204.55C397.421 201.75 397.937 199.383 398.971 197.45C400.004 195.517 401.387 194.05 403.121 193.05C404.854 192.017 406.754 191.5 408.821 191.5C410.954 191.5 412.754 192.083 414.221 193.25C415.687 194.417 416.671 195.933 417.171 197.8L416.571 198.35V180.75H421.921V217H417.171L416.771 210.2L417.471 210.25C417.237 211.75 416.687 213.05 415.821 214.15C414.954 215.217 413.871 216.05 412.571 216.65C411.304 217.217 409.937 217.5 408.471 217.5ZM409.621 213.2C411.054 213.2 412.287 212.833 413.321 212.1C414.354 211.367 415.154 210.333 415.721 209C416.287 207.667 416.571 206.067 416.571 204.2C416.571 202.467 416.287 200.983 415.721 199.75C415.154 198.483 414.354 197.517 413.321 196.85C412.321 196.183 411.154 195.85 409.821 195.85C407.587 195.85 405.854 196.617 404.621 198.15C403.387 199.683 402.771 201.8 402.771 204.5C402.771 207.2 403.371 209.333 404.571 210.9C405.771 212.433 407.454 213.2 409.621 213.2ZM444.668 200.95C444.668 199.283 444.202 198 443.268 197.1C442.368 196.167 441.118 195.7 439.518 195.7C438.018 195.7 436.735 196.05 435.668 196.75C434.602 197.45 433.818 198.583 433.318 200.15L428.818 198.25C429.452 196.217 430.685 194.583 432.518 193.35C434.385 192.117 436.785 191.5 439.718 191.5C441.718 191.5 443.485 191.833 445.018 192.5C446.552 193.133 447.752 194.1 448.618 195.4C449.518 196.7 449.968 198.367 449.968 200.4V211.55C449.968 212.783 450.585 213.4 451.818 213.4C452.418 213.4 453.002 213.317 453.568 213.15L453.268 216.85C452.502 217.217 451.535 217.4 450.368 217.4C449.302 217.4 448.335 217.217 447.468 216.85C446.635 216.45 445.968 215.867 445.468 215.1C445.002 214.3 444.768 213.317 444.768 212.15V211.8L445.868 211.75C445.568 213.05 444.952 214.133 444.018 215C443.085 215.833 442.002 216.467 440.768 216.9C439.535 217.3 438.285 217.5 437.018 217.5C435.452 217.5 434.035 217.25 432.768 216.75C431.535 216.25 430.552 215.5 429.818 214.5C429.118 213.467 428.768 212.2 428.768 210.7C428.768 208.833 429.368 207.3 430.568 206.1C431.802 204.9 433.535 204.083 435.768 203.65L445.468 201.75L445.418 205.5L438.368 206.95C436.968 207.217 435.918 207.6 435.218 208.1C434.518 208.6 434.168 209.333 434.168 210.3C434.168 211.233 434.518 211.983 435.218 212.55C435.952 213.083 436.918 213.35 438.118 213.35C438.952 213.35 439.752 213.25 440.518 213.05C441.318 212.85 442.035 212.533 442.668 212.1C443.302 211.633 443.785 211.05 444.118 210.35C444.485 209.617 444.668 208.75 444.668 207.75V200.95Z" fill="#838383"/>
</g>
<defs>
<clipPath id="clip0_216_17">
<rect width="856" height="240" fill="white"/>
</clipPath>
</defs>
</svg>
