<svg width="662" height="185" viewBox="0 0 662 185" fill="none" xmlns="http://www.w3.org/2000/svg">
<path d="M96.8125 11C87.5834 11.0171 80.0957 19.0784 80.1115 29.0316C80.1273 38.9677 87.6151 47.0291 96.8441 47.0291C106.073 47.0291 113.561 38.9677 113.561 29.0146V28.9805C113.545 19.0273 106.057 10.983 96.8125 11ZM41.628 52.6022C38.6836 52.6192 35.6917 52.7896 32.8897 53.5566C31.0375 54.0679 29.2487 54.8859 28.0931 56.1812C26.6367 57.8003 26.4468 59.9818 27.1591 61.8566C27.7923 63.5097 29.502 64.7368 31.4016 65.4526C35.5017 66.9695 40.045 67.2763 44.3508 68.2307C45.1423 68.4352 46.0288 68.6738 46.5196 69.2533C47.0262 69.952 46.7254 70.9064 45.8864 71.3325C44.4933 72.0995 42.7045 72.0994 41.074 72.0824C39.5859 72.0142 37.9554 71.8779 36.7681 71.0769C35.8974 70.4974 35.7391 69.5259 35.9449 68.6738H26.3518C26.3201 70.2418 26.6051 71.8949 27.6815 73.2413C28.568 74.4003 30.0244 75.2013 31.5758 75.6955C34.0611 76.4795 36.7523 76.7181 39.3959 76.7863C42.9894 76.8545 46.6462 76.7352 50.0972 75.866C52.1552 75.3206 54.1815 74.4514 55.4954 73.0368C57.8383 70.5144 57.2842 66.5093 54.1815 64.5494C52.6301 63.5779 50.7779 62.9814 48.8941 62.5894C46.1238 61.9759 43.306 61.5157 40.5199 61.0214C39.5384 60.8169 38.4936 60.6295 37.6704 60.1352C36.7998 59.641 36.7365 58.465 37.623 57.9367C38.7627 57.2379 40.2824 57.2549 41.6438 57.2549C43.0844 57.289 44.6516 57.3742 45.8389 58.1071C46.5038 58.4991 46.7729 59.1808 46.7729 59.8284L55.8911 59.8114C55.8595 58.5672 55.6378 57.272 54.7988 56.1983C53.8174 54.8689 52.0919 54.0338 50.3189 53.5566C47.5169 52.7726 44.5566 52.6192 41.628 52.6022ZM61.4159 53.335V76.8033H88.0267V71.6904H71.1832V67.1399H86.2062V62.1463H71.1832V58.4139H87.4251L87.4093 53.3521L61.4159 53.335ZM105.25 53.3521C105.25 53.3521 97.0341 53.3521 92.9182 53.3521V76.8204H102.258V61.0214L115.049 76.8033L127.872 76.8204V53.3521H118.516L118.532 69.0317L105.25 53.3521ZM144.525 53.3862C144.525 53.3862 134.457 69.0487 129.391 76.8545H139.19L141.549 72.6278H156.699L158.899 76.8715H169.79L155.353 53.3862H144.525ZM149.432 58.9933L154.087 67.4978L144.478 67.5149L149.432 58.9933ZM18.6741 83.4501L18.7532 96.2324L63.0939 96.062C65.3577 96.5903 66.6716 98.1754 66.2125 101.771L38.9369 153.173L47.8177 162.121L90.0688 83.4501H18.6741ZM103.303 83.5524L144.842 161.882L154.023 153.003L126.431 101.737C125.972 98.1242 127.286 96.5222 129.55 95.9938L173.906 96.1643L173.89 83.6035L103.303 83.5524ZM96.2901 96.5222L57.3317 168.512L67.6847 173.949L93.6781 126.637C94.5804 125.853 95.4827 125.427 96.3851 125.393C97.3349 125.359 98.3164 125.734 99.282 126.552L125.212 174L135.882 168.001L96.2901 96.5222Z" fill="white"/>
<path d="M221.273 49.3906C221.024 48.5265 220.675 47.763 220.225 47.1001C219.775 46.4254 219.225 45.8572 218.574 45.3956C217.935 44.9221 217.201 44.5611 216.372 44.3125C215.555 44.0639 214.65 43.9396 213.656 43.9396C211.797 43.9396 210.164 44.4013 208.755 45.3246C207.358 46.2479 206.269 47.5914 205.488 49.3551C204.707 51.107 204.316 53.2495 204.316 55.7827C204.316 58.3158 204.701 60.4702 205.47 62.2457C206.24 64.0213 207.329 65.3767 208.737 66.3118C210.146 67.2351 211.809 67.6967 213.727 67.6967C215.467 67.6967 216.952 67.389 218.183 66.7734C219.426 66.1461 220.373 65.2642 221.024 64.1278C221.687 62.9915 222.018 61.648 222.018 60.0973L223.581 60.3281H214.206V54.5398H229.423V59.1207C229.423 62.3168 228.748 65.063 227.398 67.3594C226.049 69.6439 224.191 71.4077 221.823 72.6506C219.456 73.8816 216.745 74.4972 213.691 74.4972C210.282 74.4972 207.287 73.7455 204.707 72.2422C202.126 70.727 200.114 68.5786 198.67 65.7969C197.237 63.0033 196.521 59.6889 196.521 55.8537C196.521 52.9062 196.947 50.2784 197.8 47.9702C198.664 45.6501 199.871 43.6851 201.422 42.0753C202.973 40.4654 204.778 39.2403 206.837 38.3999C208.897 37.5594 211.128 37.1392 213.531 37.1392C215.591 37.1392 217.509 37.4411 219.284 38.0447C221.06 38.6366 222.634 39.477 224.007 40.5661C225.392 41.6551 226.522 42.9512 227.398 44.4545C228.274 45.946 228.837 47.5914 229.085 49.3906H221.273ZM247.485 74.5327C244.679 74.5327 242.264 73.9645 240.24 72.8281C238.228 71.6799 236.677 70.0582 235.588 67.9631C234.499 65.8561 233.955 63.3643 233.955 60.4879C233.955 57.6825 234.499 55.2204 235.588 53.1016C236.677 50.9827 238.21 49.3314 240.187 48.1477C242.176 46.964 244.508 46.3722 247.183 46.3722C248.982 46.3722 250.657 46.6622 252.208 47.2422C253.77 47.8104 255.131 48.6686 256.291 49.8168C257.463 50.965 258.375 52.4091 259.026 54.1491C259.677 55.8774 260.002 57.9015 260.002 60.2216V62.299H236.973V57.6115H252.882C252.882 56.5225 252.646 55.5578 252.172 54.7173C251.699 53.8769 251.042 53.2199 250.201 52.7464C249.373 52.2611 248.408 52.0185 247.307 52.0185C246.159 52.0185 245.141 52.2848 244.253 52.8175C243.377 53.3383 242.691 54.0426 242.193 54.9304C241.696 55.8063 241.442 56.7829 241.43 57.8601V62.3168C241.43 63.6662 241.678 64.8321 242.176 65.8146C242.685 66.7971 243.401 67.5547 244.324 68.0874C245.247 68.62 246.342 68.8864 247.609 68.8864C248.449 68.8864 249.219 68.768 249.917 68.5312C250.615 68.2945 251.213 67.9394 251.71 67.4659C252.208 66.9924 252.586 66.4124 252.847 65.7259L259.843 66.1875C259.487 67.8684 258.759 69.3362 257.659 70.5909C256.57 71.8338 255.161 72.8045 253.433 73.5028C251.716 74.1894 249.734 74.5327 247.485 74.5327ZM287.63 54.5043L280.705 54.9304C280.587 54.3385 280.333 53.8059 279.942 53.3324C279.551 52.8471 279.036 52.4624 278.397 52.1783C277.77 51.8823 277.018 51.7344 276.142 51.7344C274.97 51.7344 273.982 51.983 273.177 52.4801C272.372 52.9654 271.97 53.6165 271.97 54.4332C271.97 55.0843 272.23 55.6347 272.751 56.0845C273.272 56.5343 274.165 56.8954 275.432 57.1676L280.368 58.1619C283.02 58.7064 284.996 59.5824 286.298 60.7898C287.601 61.9972 288.252 63.5833 288.252 65.5483C288.252 67.3357 287.725 68.9041 286.671 70.2536C285.63 71.603 284.197 72.6565 282.374 73.4141C280.563 74.1598 278.474 74.5327 276.107 74.5327C272.496 74.5327 269.62 73.781 267.477 72.2777C265.347 70.7625 264.098 68.7029 263.731 66.0987L271.171 65.7081C271.396 66.8089 271.94 67.6494 272.804 68.2294C273.668 68.7976 274.775 69.0817 276.124 69.0817C277.45 69.0817 278.516 68.8272 279.32 68.3182C280.137 67.7973 280.552 67.1286 280.563 66.3118C280.552 65.6252 280.262 65.063 279.693 64.625C279.125 64.1752 278.249 63.8319 277.066 63.5952L272.343 62.6541C269.679 62.1214 267.696 61.1982 266.394 59.8842C265.104 58.5703 264.459 56.8954 264.459 54.8594C264.459 53.1075 264.932 51.5982 265.879 50.3317C266.838 49.0651 268.182 48.0885 269.91 47.402C271.65 46.7154 273.686 46.3722 276.018 46.3722C279.463 46.3722 282.173 47.1001 284.15 48.5561C286.139 50.0121 287.299 51.9948 287.63 54.5043ZM307.521 46.7273V52.4091H291.097V46.7273H307.521ZM294.826 40.1932H302.39V65.6193C302.39 66.3177 302.496 66.8622 302.709 67.2528C302.922 67.6316 303.218 67.898 303.597 68.0518C303.988 68.2057 304.437 68.2827 304.946 68.2827C305.301 68.2827 305.657 68.2531 306.012 68.1939C306.367 68.1229 306.639 68.0696 306.828 68.0341L308.018 73.6626C307.639 73.781 307.107 73.9171 306.42 74.071C305.734 74.2367 304.899 74.3374 303.917 74.3729C302.094 74.4439 300.496 74.2012 299.123 73.6449C297.761 73.0885 296.702 72.2244 295.944 71.0526C295.187 69.8807 294.814 68.401 294.826 66.6136V40.1932ZM312.448 74V46.7273H320.012V74H312.448ZM316.248 43.2116C315.123 43.2116 314.159 42.8388 313.354 42.093C312.561 41.3355 312.164 40.4299 312.164 39.3764C312.164 38.3348 312.561 37.4411 313.354 36.6953C314.159 35.9377 315.123 35.5589 316.248 35.5589C317.372 35.5589 318.331 35.9377 319.124 36.6953C319.929 37.4411 320.332 38.3348 320.332 39.3764C320.332 40.4299 319.929 41.3355 319.124 42.093C318.331 42.8388 317.372 43.2116 316.248 43.2116ZM338.394 74.5327C335.636 74.5327 333.25 73.9467 331.238 72.7749C329.238 71.5911 327.693 69.9458 326.604 67.8388C325.515 65.7199 324.97 63.2637 324.97 60.4702C324.97 57.6529 325.515 55.1908 326.604 53.0838C327.693 50.965 329.238 49.3196 331.238 48.1477C333.25 46.964 335.636 46.3722 338.394 46.3722C341.152 46.3722 343.531 46.964 345.531 48.1477C347.544 49.3196 349.094 50.965 350.183 53.0838C351.272 55.1908 351.817 57.6529 351.817 60.4702C351.817 63.2637 351.272 65.7199 350.183 67.8388C349.094 69.9458 347.544 71.5911 345.531 72.7749C343.531 73.9467 341.152 74.5327 338.394 74.5327ZM338.429 68.6733C339.684 68.6733 340.731 68.3182 341.572 67.608C342.412 66.8859 343.046 65.9034 343.472 64.6605C343.91 63.4176 344.129 62.0031 344.129 60.4169C344.129 58.8307 343.91 57.4162 343.472 56.1733C343.046 54.9304 342.412 53.9479 341.572 53.2259C340.731 52.5038 339.684 52.1428 338.429 52.1428C337.163 52.1428 336.097 52.5038 335.233 53.2259C334.381 53.9479 333.736 54.9304 333.298 56.1733C332.872 57.4162 332.659 58.8307 332.659 60.4169C332.659 62.0031 332.872 63.4176 333.298 64.6605C333.736 65.9034 334.381 66.8859 335.233 67.608C336.097 68.3182 337.163 68.6733 338.429 68.6733ZM335.677 43.2116L339.441 35.1328H346.437L341.021 43.2116H335.677ZM364.299 58.233V74H356.735V46.7273H363.944V51.5391H364.264C364.867 49.9529 365.879 48.6982 367.3 47.7749C368.72 46.8397 370.443 46.3722 372.467 46.3722C374.361 46.3722 376.012 46.7865 377.421 47.6151C378.829 48.4437 379.924 49.6274 380.705 51.1662C381.487 52.6932 381.877 54.5161 381.877 56.6349V74H374.313V57.9844C374.325 56.3153 373.899 55.0133 373.035 54.0781C372.171 53.1312 370.981 52.6577 369.466 52.6577C368.448 52.6577 367.548 52.8767 366.767 53.3146C365.998 53.7526 365.394 54.3918 364.956 55.2322C364.53 56.0608 364.311 57.0611 364.299 58.233ZM398.168 43.9751V37.6364H428.033V43.9751H416.9V74H409.301V43.9751H398.168ZM432.952 74V37.6364H457.454V43.9751H440.64V52.6399H456.194V58.9787H440.64V67.6612H457.525V74H432.952ZM471.255 37.6364V74H463.567V37.6364H471.255ZM507.996 37.6364V74H501.355L485.535 51.1129H485.269V74H477.58V37.6364H484.328L500.024 60.5057H500.343V37.6364H507.996ZM544.763 37.6364V74H538.123L522.303 51.1129H522.036V74H514.348V37.6364H521.095L536.791 60.5057H537.111V37.6364H544.763ZM584.532 55.8182C584.532 59.7836 583.78 63.1572 582.277 65.9389C580.785 68.7206 578.749 70.8454 576.169 72.3132C573.6 73.7692 570.712 74.4972 567.504 74.4972C564.273 74.4972 561.372 73.7633 558.804 72.2955C556.235 70.8277 554.205 68.7029 552.714 65.9212C551.222 63.1394 550.476 59.7718 550.476 55.8182C550.476 51.8527 551.222 48.4792 552.714 45.6974C554.205 42.9157 556.235 40.7969 558.804 39.3409C561.372 37.8731 564.273 37.1392 567.504 37.1392C570.712 37.1392 573.6 37.8731 576.169 39.3409C578.749 40.7969 580.785 42.9157 582.277 45.6974C583.78 48.4792 584.532 51.8527 584.532 55.8182ZM576.737 55.8182C576.737 53.2495 576.352 51.0833 575.583 49.3196C574.825 47.5559 573.754 46.2183 572.369 45.3068C570.984 44.3954 569.363 43.9396 567.504 43.9396C565.646 43.9396 564.024 44.3954 562.639 45.3068C561.254 46.2183 560.177 47.5559 559.407 49.3196C558.65 51.0833 558.271 53.2495 558.271 55.8182C558.271 58.3868 558.65 60.553 559.407 62.3168C560.177 64.0805 561.254 65.4181 562.639 66.3295C564.024 67.241 565.646 67.6967 567.504 67.6967C569.363 67.6967 570.984 67.241 572.369 66.3295C573.754 65.4181 574.825 64.0805 575.583 62.3168C576.352 60.553 576.737 58.3868 576.737 55.8182ZM594.746 37.6364L603.535 65.2642H603.872L612.679 37.6364H621.202L608.666 74H598.759L586.205 37.6364H594.746ZM627.012 74H618.774L631.327 37.6364H641.235L653.77 74H645.531L636.423 45.946H636.139L627.012 74ZM626.497 59.7067H645.958V65.7081H626.497V59.7067Z" fill="white"/>
<path d="M209.93 100.9C211.77 100.9 213.39 101.19 214.79 101.77C216.21 102.33 217.44 103.16 218.48 104.26L215.99 107.59C215.13 106.69 214.2 106.02 213.2 105.58C212.22 105.12 211.1 104.89 209.84 104.89C209.1 104.89 208.5 104.97 208.04 105.13C207.58 105.29 207.25 105.51 207.05 105.79C206.85 106.07 206.75 106.39 206.75 106.75C206.75 107.17 206.94 107.53 207.32 107.83C207.72 108.11 208.36 108.35 209.24 108.55L212.57 109.3C214.55 109.76 216 110.43 216.92 111.31C217.84 112.19 218.3 113.36 218.3 114.82C218.3 116.22 217.94 117.41 217.22 118.39C216.5 119.35 215.51 120.08 214.25 120.58C212.99 121.06 211.55 121.3 209.93 121.3C208.61 121.3 207.35 121.16 206.15 120.88C204.95 120.58 203.87 120.16 202.91 119.62C201.95 119.08 201.14 118.46 200.48 117.76L202.97 114.31C203.47 114.89 204.08 115.41 204.8 115.87C205.54 116.31 206.34 116.66 207.2 116.92C208.08 117.18 208.97 117.31 209.87 117.31C210.57 117.31 211.15 117.24 211.61 117.1C212.09 116.96 212.44 116.75 212.66 116.47C212.88 116.19 212.99 115.86 212.99 115.48C212.99 115.06 212.84 114.71 212.54 114.43C212.24 114.13 211.67 113.88 210.83 113.68L207.17 112.87C206.05 112.61 205.05 112.27 204.17 111.85C203.31 111.41 202.63 110.83 202.13 110.11C201.63 109.37 201.38 108.45 201.38 107.35C201.38 106.11 201.72 105.01 202.4 104.05C203.08 103.07 204.06 102.3 205.34 101.74C206.62 101.18 208.15 100.9 209.93 100.9ZM228.486 121.3C226.826 121.3 225.386 120.99 224.166 120.37C222.966 119.75 222.036 118.86 221.376 117.7C220.716 116.54 220.386 115.14 220.386 113.5C220.386 111.86 220.716 110.46 221.376 109.3C222.036 108.14 222.956 107.25 224.136 106.63C225.336 106.01 226.706 105.7 228.246 105.7C229.826 105.7 231.166 106.01 232.266 106.63C233.386 107.23 234.236 108.07 234.816 109.15C235.396 110.21 235.686 111.43 235.686 112.81C235.686 113.17 235.676 113.53 235.656 113.89C235.636 114.25 235.606 114.55 235.566 114.79H223.686V112.06H233.316L230.886 112.99C230.886 111.79 230.666 110.87 230.226 110.23C229.806 109.59 229.146 109.27 228.246 109.27C227.606 109.27 227.056 109.42 226.596 109.72C226.156 110.02 225.816 110.49 225.576 111.13C225.356 111.77 225.246 112.59 225.246 113.59C225.246 114.57 225.376 115.37 225.636 115.99C225.896 116.59 226.266 117.03 226.746 117.31C227.226 117.57 227.806 117.7 228.486 117.7C229.246 117.7 229.846 117.55 230.286 117.25C230.746 116.95 231.086 116.53 231.306 115.99L235.386 117.34C235.106 118.2 234.616 118.93 233.916 119.53C233.236 120.11 232.416 120.55 231.456 120.85C230.516 121.15 229.526 121.3 228.486 121.3ZM238.539 121V106H243.099L243.249 108.91C243.729 107.85 244.399 107.05 245.259 106.51C246.139 105.97 247.149 105.7 248.289 105.7C249.409 105.7 250.379 105.95 251.199 106.45C252.019 106.95 252.629 107.69 253.029 108.67C253.349 108.01 253.759 107.46 254.259 107.02C254.779 106.58 255.369 106.25 256.029 106.03C256.689 105.81 257.369 105.7 258.069 105.7C259.069 105.7 259.949 105.9 260.709 106.3C261.469 106.68 262.069 107.27 262.509 108.07C262.969 108.85 263.199 109.83 263.199 111.01V121H258.099V112.18C258.099 111.22 257.909 110.55 257.529 110.17C257.169 109.79 256.679 109.6 256.059 109.6C255.559 109.6 255.099 109.73 254.679 109.99C254.279 110.23 253.969 110.6 253.749 111.1C253.529 111.6 253.419 112.23 253.419 112.99V121H248.319V112.18C248.319 111.22 248.129 110.55 247.749 110.17C247.369 109.79 246.879 109.6 246.279 109.6C245.819 109.6 245.379 109.72 244.959 109.96C244.559 110.2 244.239 110.58 243.999 111.1C243.759 111.6 243.639 112.26 243.639 113.08V121H238.539ZM269.331 104.26C268.291 104.26 267.531 104.07 267.051 103.69C266.591 103.29 266.361 102.67 266.361 101.83C266.361 100.97 266.591 100.35 267.051 99.97C267.531 99.57 268.291 99.37 269.331 99.37C270.351 99.37 271.101 99.57 271.581 99.97C272.061 100.35 272.301 100.97 272.301 101.83C272.301 102.67 272.061 103.29 271.581 103.69C271.101 104.07 270.351 104.26 269.331 104.26ZM271.881 106V121H266.781V106H271.881ZM280.552 99.64V115.9C280.552 116.56 280.662 117.03 280.882 117.31C281.102 117.59 281.472 117.73 281.992 117.73C282.292 117.73 282.542 117.71 282.742 117.67C282.942 117.63 283.182 117.57 283.462 117.49L283.132 120.55C282.772 120.77 282.302 120.95 281.722 121.09C281.142 121.23 280.572 121.3 280.012 121.3C278.412 121.3 277.252 120.93 276.532 120.19C275.812 119.45 275.452 118.24 275.452 116.56V99.64H280.552ZM290.366 99.64V115.9C290.366 116.56 290.476 117.03 290.696 117.31C290.916 117.59 291.286 117.73 291.806 117.73C292.106 117.73 292.356 117.71 292.556 117.67C292.756 117.63 292.996 117.57 293.276 117.49L292.946 120.55C292.586 120.77 292.116 120.95 291.536 121.09C290.956 121.23 290.386 121.3 289.826 121.3C288.226 121.3 287.066 120.93 286.346 120.19C285.626 119.45 285.266 118.24 285.266 116.56V99.64H290.366ZM302.461 121.3C300.801 121.3 299.361 120.99 298.141 120.37C296.941 119.75 296.011 118.86 295.351 117.7C294.691 116.54 294.361 115.14 294.361 113.5C294.361 111.86 294.691 110.46 295.351 109.3C296.011 108.14 296.931 107.25 298.111 106.63C299.311 106.01 300.681 105.7 302.221 105.7C303.801 105.7 305.141 106.01 306.241 106.63C307.361 107.23 308.211 108.07 308.791 109.15C309.371 110.21 309.661 111.43 309.661 112.81C309.661 113.17 309.651 113.53 309.631 113.89C309.611 114.25 309.581 114.55 309.541 114.79H297.661V112.06H307.291L304.861 112.99C304.861 111.79 304.641 110.87 304.201 110.23C303.781 109.59 303.121 109.27 302.221 109.27C301.581 109.27 301.031 109.42 300.571 109.72C300.131 110.02 299.791 110.49 299.551 111.13C299.331 111.77 299.221 112.59 299.221 113.59C299.221 114.57 299.351 115.37 299.611 115.99C299.871 116.59 300.241 117.03 300.721 117.31C301.201 117.57 301.781 117.7 302.461 117.7C303.221 117.7 303.821 117.55 304.261 117.25C304.721 116.95 305.061 116.53 305.281 115.99L309.361 117.34C309.081 118.2 308.591 118.93 307.891 119.53C307.211 120.11 306.391 120.55 305.431 120.85C304.491 121.15 303.501 121.3 302.461 121.3ZM312.514 121V106H317.014L317.224 109.24C317.604 108.12 318.164 107.25 318.904 106.63C319.664 106.01 320.624 105.7 321.784 105.7C322.164 105.7 322.484 105.73 322.744 105.79C323.024 105.85 323.244 105.93 323.404 106.03L322.894 110.23C322.694 110.15 322.434 110.09 322.114 110.05C321.814 109.99 321.444 109.96 321.004 109.96C320.404 109.96 319.844 110.09 319.324 110.35C318.804 110.61 318.384 111 318.064 111.52C317.764 112.02 317.614 112.66 317.614 113.44V121H312.514ZM332.368 105.7C333.948 105.7 335.328 106.01 336.508 106.63C337.708 107.23 338.638 108.12 339.298 109.3C339.978 110.46 340.318 111.86 340.318 113.5C340.318 115.14 339.978 116.55 339.298 117.73C338.638 118.89 337.708 119.78 336.508 120.4C335.328 121 333.948 121.3 332.368 121.3C330.828 121.3 329.458 121 328.258 120.4C327.058 119.78 326.118 118.89 325.438 117.73C324.778 116.55 324.448 115.14 324.448 113.5C324.448 111.86 324.778 110.46 325.438 109.3C326.118 108.12 327.058 107.23 328.258 106.63C329.458 106.01 330.828 105.7 332.368 105.7ZM332.368 109.33C331.788 109.33 331.288 109.47 330.868 109.75C330.448 110.03 330.128 110.48 329.908 111.1C329.688 111.72 329.578 112.52 329.578 113.5C329.578 114.48 329.688 115.28 329.908 115.9C330.128 116.5 330.448 116.95 330.868 117.25C331.288 117.53 331.788 117.67 332.368 117.67C332.968 117.67 333.478 117.53 333.898 117.25C334.318 116.95 334.638 116.5 334.858 115.9C335.078 115.28 335.188 114.48 335.188 113.5C335.188 112.52 335.078 111.72 334.858 111.1C334.638 110.48 334.318 110.03 333.898 109.75C333.478 109.47 332.968 109.33 332.368 109.33ZM349.487 121.3C347.987 121.3 346.587 121.06 345.287 120.58C344.007 120.08 342.947 119.37 342.107 118.45L344.507 115.63C345.007 116.27 345.667 116.81 346.487 117.25C347.327 117.67 348.257 117.88 349.277 117.88C349.897 117.88 350.407 117.79 350.807 117.61C351.207 117.43 351.407 117.15 351.407 116.77C351.407 116.49 351.307 116.27 351.107 116.11C350.907 115.93 350.507 115.78 349.907 115.66L347.807 115.24C345.927 114.86 344.587 114.3 343.787 113.56C343.007 112.8 342.617 111.81 342.617 110.59C342.617 109.77 342.867 108.99 343.367 108.25C343.867 107.49 344.637 106.88 345.677 106.42C346.717 105.94 348.047 105.7 349.667 105.7C351.187 105.7 352.527 105.92 353.687 106.36C354.847 106.8 355.767 107.44 356.447 108.28L354.017 111.04C353.537 110.44 352.917 109.97 352.157 109.63C351.397 109.29 350.637 109.12 349.877 109.12C349.397 109.12 348.987 109.17 348.647 109.27C348.327 109.35 348.087 109.47 347.927 109.63C347.767 109.79 347.687 109.99 347.687 110.23C347.687 110.49 347.807 110.72 348.047 110.92C348.307 111.1 348.777 111.26 349.457 111.4L352.187 111.94C353.727 112.22 354.837 112.73 355.517 113.47C356.197 114.21 356.537 115.1 356.537 116.14C356.537 117.12 356.277 118 355.757 118.78C355.237 119.56 354.457 120.18 353.417 120.64C352.377 121.08 351.067 121.3 349.487 121.3ZM382.535 106L377.075 121C376.515 122.58 375.905 123.84 375.245 124.78C374.585 125.72 373.805 126.4 372.905 126.82C372.005 127.24 370.925 127.45 369.665 127.45C368.825 127.45 368.055 127.36 367.355 127.18C366.655 127 366.045 126.75 365.525 126.43L366.545 122.98C366.905 123.24 367.285 123.42 367.685 123.52C368.085 123.64 368.595 123.7 369.215 123.7C369.795 123.7 370.265 123.6 370.625 123.4C371.005 123.2 371.305 122.82 371.525 122.26L371.915 121.33L370.175 117.25L365.675 106H371.285L373.595 114.55L374.315 117.73L375.155 114.43L377.465 106H382.535ZM392.26 121V99.64H397.36V108.73C397.8 107.73 398.43 106.98 399.25 106.48C400.07 105.96 401.02 105.7 402.1 105.7C403.14 105.7 404.04 105.9 404.8 106.3C405.58 106.7 406.19 107.29 406.63 108.07C407.07 108.85 407.29 109.83 407.29 111.01V121H402.19V112.42C402.19 111.34 401.99 110.6 401.59 110.2C401.21 109.78 400.7 109.57 400.06 109.57C399.58 109.57 399.13 109.69 398.71 109.93C398.29 110.17 397.96 110.55 397.72 111.07C397.48 111.59 397.36 112.27 397.36 113.11V121H392.26ZM418.003 105.7C419.583 105.7 420.963 106.01 422.143 106.63C423.343 107.23 424.273 108.12 424.933 109.3C425.613 110.46 425.953 111.86 425.953 113.5C425.953 115.14 425.613 116.55 424.933 117.73C424.273 118.89 423.343 119.78 422.143 120.4C420.963 121 419.583 121.3 418.003 121.3C416.463 121.3 415.093 121 413.893 120.4C412.693 119.78 411.753 118.89 411.073 117.73C410.413 116.55 410.083 115.14 410.083 113.5C410.083 111.86 410.413 110.46 411.073 109.3C411.753 108.12 412.693 107.23 413.893 106.63C415.093 106.01 416.463 105.7 418.003 105.7ZM418.003 109.33C417.423 109.33 416.923 109.47 416.503 109.75C416.083 110.03 415.763 110.48 415.543 111.1C415.323 111.72 415.213 112.52 415.213 113.5C415.213 114.48 415.323 115.28 415.543 115.9C415.763 116.5 416.083 116.95 416.503 117.25C416.923 117.53 417.423 117.67 418.003 117.67C418.603 117.67 419.113 117.53 419.533 117.25C419.953 116.95 420.273 116.5 420.493 115.9C420.713 115.28 420.823 114.48 420.823 113.5C420.823 112.52 420.713 111.72 420.493 111.1C420.273 110.48 419.953 110.03 419.533 109.75C419.113 109.47 418.603 109.33 418.003 109.33ZM428.822 121V106H433.322L433.532 109.24C433.912 108.12 434.472 107.25 435.212 106.63C435.972 106.01 436.932 105.7 438.092 105.7C438.472 105.7 438.792 105.73 439.052 105.79C439.332 105.85 439.552 105.93 439.712 106.03L439.202 110.23C439.002 110.15 438.742 110.09 438.422 110.05C438.122 109.99 437.752 109.96 437.312 109.96C436.712 109.96 436.152 110.09 435.632 110.35C435.112 110.61 434.692 111 434.372 111.52C434.072 112.02 433.922 112.66 433.922 113.44V121H428.822ZM449.936 111.49C449.936 110.79 449.736 110.24 449.336 109.84C448.956 109.42 448.436 109.21 447.776 109.21C447.116 109.21 446.546 109.38 446.066 109.72C445.606 110.04 445.286 110.62 445.106 111.46L440.786 110.44C441.066 109 441.806 107.85 443.006 106.99C444.206 106.13 445.896 105.7 448.076 105.7C449.536 105.7 450.776 105.92 451.796 106.36C452.836 106.78 453.626 107.42 454.166 108.28C454.726 109.12 455.006 110.16 455.006 111.4V116.89C455.006 117.67 455.356 118.06 456.056 118.06C456.416 118.06 456.706 118.02 456.926 117.94L456.626 120.85C456.026 121.13 455.296 121.27 454.436 121.27C453.656 121.27 452.966 121.15 452.366 120.91C451.766 120.65 451.296 120.27 450.956 119.77C450.616 119.25 450.446 118.6 450.446 117.82V117.64L451.016 117.43C451.016 118.29 450.756 119.01 450.236 119.59C449.736 120.17 449.076 120.6 448.256 120.88C447.456 121.16 446.616 121.3 445.736 121.3C444.716 121.3 443.826 121.14 443.066 120.82C442.306 120.5 441.716 120.04 441.296 119.44C440.896 118.82 440.696 118.06 440.696 117.16C440.696 116.08 441.016 115.19 441.656 114.49C442.316 113.77 443.346 113.27 444.746 112.99L450.416 111.82L450.386 114.52L447.506 115.12C446.906 115.24 446.456 115.42 446.156 115.66C445.876 115.88 445.736 116.22 445.736 116.68C445.736 117.12 445.896 117.45 446.216 117.67C446.536 117.89 446.916 118 447.356 118C447.696 118 448.016 117.95 448.316 117.85C448.636 117.75 448.916 117.6 449.156 117.4C449.396 117.18 449.586 116.91 449.726 116.59C449.866 116.27 449.936 115.89 449.936 115.45V111.49ZM465.239 121.3C463.739 121.3 462.339 121.06 461.039 120.58C459.759 120.08 458.699 119.37 457.859 118.45L460.259 115.63C460.759 116.27 461.419 116.81 462.239 117.25C463.079 117.67 464.009 117.88 465.029 117.88C465.649 117.88 466.159 117.79 466.559 117.61C466.959 117.43 467.159 117.15 467.159 116.77C467.159 116.49 467.059 116.27 466.859 116.11C466.659 115.93 466.259 115.78 465.659 115.66L463.559 115.24C461.679 114.86 460.339 114.3 459.539 113.56C458.759 112.8 458.369 111.81 458.369 110.59C458.369 109.77 458.619 108.99 459.119 108.25C459.619 107.49 460.389 106.88 461.429 106.42C462.469 105.94 463.799 105.7 465.419 105.7C466.939 105.7 468.279 105.92 469.439 106.36C470.599 106.8 471.519 107.44 472.199 108.28L469.769 111.04C469.289 110.44 468.669 109.97 467.909 109.63C467.149 109.29 466.389 109.12 465.629 109.12C465.149 109.12 464.739 109.17 464.399 109.27C464.079 109.35 463.839 109.47 463.679 109.63C463.519 109.79 463.439 109.99 463.439 110.23C463.439 110.49 463.559 110.72 463.799 110.92C464.059 111.1 464.529 111.26 465.209 111.4L467.939 111.94C469.479 112.22 470.589 112.73 471.269 113.47C471.949 114.21 472.289 115.1 472.289 116.14C472.289 117.12 472.029 118 471.509 118.78C470.989 119.56 470.209 120.18 469.169 120.64C468.129 121.08 466.819 121.3 465.239 121.3ZM489.039 121.3C487.799 121.3 486.709 121 485.769 120.4C484.849 119.78 484.129 118.89 483.609 117.73C483.109 116.57 482.859 115.18 482.859 113.56C482.859 111.88 483.119 110.46 483.639 109.3C484.179 108.14 484.919 107.25 485.859 106.63C486.819 106.01 487.919 105.7 489.159 105.7C490.519 105.7 491.609 106.12 492.429 106.96C493.269 107.78 493.809 108.83 494.049 110.11L493.569 110.74V99.64H498.669V121H494.109L493.779 115.9L494.379 116.35C494.259 117.35 493.949 118.22 493.449 118.96C492.969 119.7 492.349 120.28 491.589 120.7C490.849 121.1 489.999 121.3 489.039 121.3ZM490.809 117.55C491.389 117.55 491.879 117.4 492.279 117.1C492.699 116.78 493.019 116.31 493.239 115.69C493.459 115.07 493.569 114.31 493.569 113.41C493.569 112.57 493.459 111.86 493.239 111.28C493.039 110.68 492.729 110.23 492.309 109.93C491.909 109.61 491.419 109.45 490.839 109.45C489.959 109.45 489.259 109.78 488.739 110.44C488.239 111.08 487.989 112.1 487.989 113.5C487.989 114.9 488.239 115.93 488.739 116.59C489.239 117.23 489.929 117.55 490.809 117.55ZM509.648 121.3C507.988 121.3 506.548 120.99 505.328 120.37C504.128 119.75 503.198 118.86 502.538 117.7C501.878 116.54 501.548 115.14 501.548 113.5C501.548 111.86 501.878 110.46 502.538 109.3C503.198 108.14 504.118 107.25 505.298 106.63C506.498 106.01 507.868 105.7 509.408 105.7C510.988 105.7 512.328 106.01 513.428 106.63C514.548 107.23 515.398 108.07 515.978 109.15C516.558 110.21 516.848 111.43 516.848 112.81C516.848 113.17 516.838 113.53 516.818 113.89C516.798 114.25 516.768 114.55 516.728 114.79H504.848V112.06H514.478L512.048 112.99C512.048 111.79 511.828 110.87 511.388 110.23C510.968 109.59 510.308 109.27 509.408 109.27C508.768 109.27 508.218 109.42 507.758 109.72C507.318 110.02 506.978 110.49 506.738 111.13C506.518 111.77 506.408 112.59 506.408 113.59C506.408 114.57 506.538 115.37 506.798 115.99C507.058 116.59 507.428 117.03 507.908 117.31C508.388 117.57 508.968 117.7 509.648 117.7C510.408 117.7 511.008 117.55 511.448 117.25C511.908 116.95 512.248 116.53 512.468 115.99L516.548 117.34C516.268 118.2 515.778 118.93 515.078 119.53C514.398 120.11 513.578 120.55 512.618 120.85C511.678 121.15 510.688 121.3 509.648 121.3ZM204.38 139.26C203.34 139.26 202.58 139.07 202.1 138.69C201.64 138.29 201.41 137.67 201.41 136.83C201.41 135.97 201.64 135.35 202.1 134.97C202.58 134.57 203.34 134.37 204.38 134.37C205.4 134.37 206.15 134.57 206.63 134.97C207.11 135.35 207.35 135.97 207.35 136.83C207.35 137.67 207.11 138.29 206.63 138.69C206.15 139.07 205.4 139.26 204.38 139.26ZM206.93 141V156H201.83V141H206.93ZM210.56 156V141H215.12L215.39 146.16L214.82 145.59C215.02 144.51 215.37 143.61 215.87 142.89C216.39 142.17 217.03 141.63 217.79 141.27C218.57 140.89 219.44 140.7 220.4 140.7C221.44 140.7 222.34 140.9 223.1 141.3C223.88 141.7 224.49 142.29 224.93 143.07C225.37 143.85 225.59 144.83 225.59 146.01V156H220.49V147.36C220.49 146.32 220.29 145.6 219.89 145.2C219.49 144.8 218.98 144.6 218.36 144.6C217.88 144.6 217.43 144.72 217.01 144.96C216.59 145.18 216.26 145.54 216.02 146.04C215.78 146.54 215.66 147.21 215.66 148.05V156H210.56ZM238.562 141H243.842L238.442 156H232.352L226.952 141H232.322L235.412 152.43L238.562 141ZM252.685 156.3C251.025 156.3 249.585 155.99 248.365 155.37C247.165 154.75 246.235 153.86 245.575 152.7C244.915 151.54 244.585 150.14 244.585 148.5C244.585 146.86 244.915 145.46 245.575 144.3C246.235 143.14 247.155 142.25 248.335 141.63C249.535 141.01 250.905 140.7 252.445 140.7C254.025 140.7 255.365 141.01 256.465 141.63C257.585 142.23 258.435 143.07 259.015 144.15C259.595 145.21 259.885 146.43 259.885 147.81C259.885 148.17 259.875 148.53 259.855 148.89C259.835 149.25 259.805 149.55 259.765 149.79H247.885V147.06H257.515L255.085 147.99C255.085 146.79 254.865 145.87 254.425 145.23C254.005 144.59 253.345 144.27 252.445 144.27C251.805 144.27 251.255 144.42 250.795 144.72C250.355 145.02 250.015 145.49 249.775 146.13C249.555 146.77 249.445 147.59 249.445 148.59C249.445 149.57 249.575 150.37 249.835 150.99C250.095 151.59 250.465 152.03 250.945 152.31C251.425 152.57 252.005 152.7 252.685 152.7C253.445 152.7 254.045 152.55 254.485 152.25C254.945 151.95 255.285 151.53 255.505 150.99L259.585 152.34C259.305 153.2 258.815 153.93 258.115 154.53C257.435 155.11 256.615 155.55 255.655 155.85C254.715 156.15 253.725 156.3 252.685 156.3ZM269.038 156.3C267.538 156.3 266.138 156.06 264.838 155.58C263.558 155.08 262.498 154.37 261.658 153.45L264.058 150.63C264.558 151.27 265.218 151.81 266.038 152.25C266.878 152.67 267.808 152.88 268.828 152.88C269.448 152.88 269.958 152.79 270.358 152.61C270.758 152.43 270.958 152.15 270.958 151.77C270.958 151.49 270.858 151.27 270.658 151.11C270.458 150.93 270.058 150.78 269.458 150.66L267.358 150.24C265.478 149.86 264.138 149.3 263.338 148.56C262.558 147.8 262.168 146.81 262.168 145.59C262.168 144.77 262.418 143.99 262.918 143.25C263.418 142.49 264.188 141.88 265.228 141.42C266.268 140.94 267.598 140.7 269.218 140.7C270.738 140.7 272.078 140.92 273.238 141.36C274.398 141.8 275.318 142.44 275.998 143.28L273.568 146.04C273.088 145.44 272.468 144.97 271.708 144.63C270.948 144.29 270.188 144.12 269.428 144.12C268.948 144.12 268.538 144.17 268.198 144.27C267.878 144.35 267.638 144.47 267.478 144.63C267.318 144.79 267.238 144.99 267.238 145.23C267.238 145.49 267.358 145.72 267.598 145.92C267.858 146.1 268.328 146.26 269.008 146.4L271.738 146.94C273.278 147.22 274.388 147.73 275.068 148.47C275.748 149.21 276.088 150.1 276.088 151.14C276.088 152.12 275.828 153 275.308 153.78C274.788 154.56 274.008 155.18 272.968 155.64C271.928 156.08 270.618 156.3 269.038 156.3ZM285.004 136.23V150.66C285.004 151.38 285.174 151.9 285.514 152.22C285.874 152.52 286.364 152.67 286.984 152.67C287.464 152.67 287.874 152.62 288.214 152.52C288.574 152.4 288.894 152.23 289.174 152.01L289.714 155.16C289.214 155.52 288.584 155.8 287.824 156C287.064 156.2 286.284 156.3 285.484 156.3C284.344 156.3 283.354 156.14 282.514 155.82C281.694 155.5 281.054 154.99 280.594 154.29C280.154 153.59 279.924 152.66 279.904 151.5V137.64L285.004 136.23ZM289.474 141V144.63H277.324V141H289.474ZM294.38 139.26C293.34 139.26 292.58 139.07 292.1 138.69C291.64 138.29 291.41 137.67 291.41 136.83C291.41 135.97 291.64 135.35 292.1 134.97C292.58 134.57 293.34 134.37 294.38 134.37C295.4 134.37 296.15 134.57 296.63 134.97C297.11 135.35 297.35 135.97 297.35 136.83C297.35 137.67 297.11 138.29 296.63 138.69C296.15 139.07 295.4 139.26 294.38 139.26ZM296.93 141V156H291.83V141H296.93ZM315.08 136.98L315.5 140.4C315.38 140.36 315.26 140.34 315.14 140.34C315.02 140.32 314.9 140.31 314.78 140.31C313.9 140.31 313.24 140.53 312.8 140.97C312.38 141.39 312.17 141.92 312.17 142.56L310.37 141.9C310.37 141.08 310.52 140.29 310.82 139.53C311.12 138.77 311.58 138.15 312.2 137.67C312.84 137.19 313.64 136.95 314.6 136.95C314.66 136.95 314.73 136.95 314.81 136.95C314.91 136.95 315 136.96 315.08 136.98ZM309.92 152.67C311.66 152.67 312.99 153.04 313.91 153.78C314.85 154.5 315.32 155.54 315.32 156.9C315.32 158.14 314.98 159.17 314.3 159.99C313.62 160.81 312.66 161.42 311.42 161.82C310.2 162.24 308.75 162.45 307.07 162.45C304.35 162.45 302.39 162.11 301.19 161.43C299.99 160.75 299.39 159.83 299.39 158.67C299.39 157.83 299.73 157.15 300.41 156.63C301.09 156.11 302.22 155.83 303.8 155.79L303.68 156.27C302.46 156.11 301.55 155.75 300.95 155.19C300.35 154.63 300.05 153.87 300.05 152.91C300.05 151.95 300.43 151.17 301.19 150.57C301.95 149.97 302.96 149.64 304.22 149.58L306.08 150.45H305.6C304.82 150.49 304.27 150.62 303.95 150.84C303.63 151.06 303.47 151.33 303.47 151.65C303.47 151.99 303.61 152.25 303.89 152.43C304.17 152.59 304.59 152.67 305.15 152.67H309.92ZM307.1 159.15C308.06 159.15 308.85 159.08 309.47 158.94C310.11 158.82 310.59 158.64 310.91 158.4C311.23 158.18 311.39 157.92 311.39 157.62C311.39 157.32 311.28 157.08 311.06 156.9C310.84 156.74 310.44 156.66 309.86 156.66H304.49C304.11 156.66 303.8 156.76 303.56 156.96C303.34 157.16 303.23 157.41 303.23 157.71C303.23 158.17 303.57 158.52 304.25 158.76C304.93 159.02 305.88 159.15 307.1 159.15ZM307.28 140.7C308.8 140.7 310.1 140.9 311.18 141.3C312.26 141.7 313.08 142.28 313.64 143.04C314.22 143.78 314.51 144.7 314.51 145.8C314.51 146.88 314.22 147.8 313.64 148.56C313.08 149.32 312.26 149.9 311.18 150.3C310.1 150.68 308.8 150.87 307.28 150.87C304.9 150.87 303.09 150.43 301.85 149.55C300.63 148.67 300.02 147.42 300.02 145.8C300.02 144.7 300.3 143.78 300.86 143.04C301.44 142.28 302.27 141.7 303.35 141.3C304.43 140.9 305.74 140.7 307.28 140.7ZM307.28 143.61C306.62 143.61 306.08 143.8 305.66 144.18C305.26 144.56 305.06 145.1 305.06 145.8C305.06 146.48 305.26 147.01 305.66 147.39C306.08 147.77 306.62 147.96 307.28 147.96C307.92 147.96 308.45 147.77 308.87 147.39C309.29 147.01 309.5 146.48 309.5 145.8C309.5 145.1 309.29 144.56 308.87 144.18C308.45 143.8 307.92 143.61 307.28 143.61ZM325.718 146.49C325.718 145.79 325.518 145.24 325.118 144.84C324.738 144.42 324.218 144.21 323.558 144.21C322.898 144.21 322.328 144.38 321.848 144.72C321.388 145.04 321.068 145.62 320.888 146.46L316.568 145.44C316.848 144 317.588 142.85 318.788 141.99C319.988 141.13 321.678 140.7 323.858 140.7C325.318 140.7 326.558 140.92 327.578 141.36C328.618 141.78 329.408 142.42 329.948 143.28C330.508 144.12 330.788 145.16 330.788 146.4V151.89C330.788 152.67 331.138 153.06 331.838 153.06C332.198 153.06 332.488 153.02 332.708 152.94L332.408 155.85C331.808 156.13 331.078 156.27 330.218 156.27C329.438 156.27 328.748 156.15 328.148 155.91C327.548 155.65 327.078 155.27 326.738 154.77C326.398 154.25 326.228 153.6 326.228 152.82V152.64L326.798 152.43C326.798 153.29 326.538 154.01 326.018 154.59C325.518 155.17 324.858 155.6 324.038 155.88C323.238 156.16 322.398 156.3 321.518 156.3C320.498 156.3 319.608 156.14 318.848 155.82C318.088 155.5 317.498 155.04 317.078 154.44C316.678 153.82 316.478 153.06 316.478 152.16C316.478 151.08 316.798 150.19 317.438 149.49C318.098 148.77 319.128 148.27 320.528 147.99L326.198 146.82L326.168 149.52L323.288 150.12C322.688 150.24 322.238 150.42 321.938 150.66C321.658 150.88 321.518 151.22 321.518 151.68C321.518 152.12 321.678 152.45 321.998 152.67C322.318 152.89 322.698 153 323.138 153C323.478 153 323.798 152.95 324.098 152.85C324.418 152.75 324.698 152.6 324.938 152.4C325.178 152.18 325.368 151.91 325.508 151.59C325.648 151.27 325.718 150.89 325.718 150.45V146.49ZM341.713 140.7C343.233 140.7 344.493 140.92 345.493 141.36C346.513 141.78 347.303 142.35 347.863 143.07C348.443 143.77 348.803 144.53 348.943 145.35L344.233 146.91C344.093 146.05 343.833 145.41 343.453 144.99C343.093 144.55 342.563 144.33 341.863 144.33C341.223 144.33 340.683 144.48 340.243 144.78C339.823 145.06 339.503 145.52 339.283 146.16C339.063 146.78 338.953 147.58 338.953 148.56C338.953 149.54 339.073 150.34 339.313 150.96C339.553 151.56 339.893 152 340.333 152.28C340.773 152.54 341.293 152.67 341.893 152.67C342.393 152.67 342.803 152.58 343.123 152.4C343.463 152.2 343.743 151.92 343.963 151.56C344.183 151.2 344.323 150.76 344.383 150.24L348.973 151.71C348.833 152.59 348.453 153.38 347.833 154.08C347.233 154.76 346.433 155.3 345.433 155.7C344.433 156.1 343.263 156.3 341.923 156.3C340.283 156.3 338.853 156 337.633 155.4C336.413 154.78 335.473 153.89 334.813 152.73C334.153 151.55 333.823 150.14 333.823 148.5C333.823 146.86 334.153 145.46 334.813 144.3C335.473 143.12 336.393 142.23 337.573 141.63C338.773 141.01 340.153 140.7 341.713 140.7ZM354.175 139.26C353.135 139.26 352.375 139.07 351.895 138.69C351.435 138.29 351.205 137.67 351.205 136.83C351.205 135.97 351.435 135.35 351.895 134.97C352.375 134.57 353.135 134.37 354.175 134.37C355.195 134.37 355.945 134.57 356.425 134.97C356.905 135.35 357.145 135.97 357.145 136.83C357.145 137.67 356.905 138.29 356.425 138.69C355.945 139.07 355.195 139.26 354.175 139.26ZM356.725 141V156H351.625V141H356.725ZM367.495 140.7C369.075 140.7 370.455 141.01 371.635 141.63C372.835 142.23 373.765 143.12 374.425 144.3C375.105 145.46 375.445 146.86 375.445 148.5C375.445 150.14 375.105 151.55 374.425 152.73C373.765 153.89 372.835 154.78 371.635 155.4C370.455 156 369.075 156.3 367.495 156.3C365.955 156.3 364.585 156 363.385 155.4C362.185 154.78 361.245 153.89 360.565 152.73C359.905 151.55 359.575 150.14 359.575 148.5C359.575 146.86 359.905 145.46 360.565 144.3C361.245 143.12 362.185 142.23 363.385 141.63C364.585 141.01 365.955 140.7 367.495 140.7ZM367.495 144.33C366.915 144.33 366.415 144.47 365.995 144.75C365.575 145.03 365.255 145.48 365.035 146.1C364.815 146.72 364.705 147.52 364.705 148.5C364.705 149.48 364.815 150.28 365.035 150.9C365.255 151.5 365.575 151.95 365.995 152.25C366.415 152.53 366.915 152.67 367.495 152.67C368.095 152.67 368.605 152.53 369.025 152.25C369.445 151.95 369.765 151.5 369.985 150.9C370.205 150.28 370.315 149.48 370.315 148.5C370.315 147.52 370.205 146.72 369.985 146.1C369.765 145.48 369.445 145.03 369.025 144.75C368.605 144.47 368.095 144.33 367.495 144.33ZM367.195 133.86H371.935L368.905 139.05H365.185L367.195 133.86ZM378.314 156V141H382.874L383.144 146.16L382.574 145.59C382.774 144.51 383.124 143.61 383.624 142.89C384.144 142.17 384.784 141.63 385.544 141.27C386.324 140.89 387.194 140.7 388.154 140.7C389.194 140.7 390.094 140.9 390.854 141.3C391.634 141.7 392.244 142.29 392.684 143.07C393.124 143.85 393.344 144.83 393.344 146.01V156H388.244V147.36C388.244 146.32 388.044 145.6 387.644 145.2C387.244 144.8 386.734 144.6 386.114 144.6C385.634 144.6 385.184 144.72 384.764 144.96C384.344 145.18 384.014 145.54 383.774 146.04C383.534 146.54 383.414 147.21 383.414 148.05V156H378.314Z" fill="white"/>
<line y1="-0.5" x2="163.003" y2="-0.5" transform="matrix(-0.00550479 0.999985 -0.999977 -0.00683702 187.639 11)" stroke="white"/>
</svg>
